<?xml version="1.0" encoding="UTF-8"?>
<!-- Generator: Adobe Illustrator 28.0.0, SVG Export Plug-In . SVG Version: 6.00 Build 0)  -->
<svg xmlns="http://www.w3.org/2000/svg" xmlns:xlink="http://www.w3.org/1999/xlink" version="1.1" id="Layer_1" x="0px" y="0px" viewBox="0 0 300 60.1" style="enable-background:new 0 0 300 60.1;" xml:space="preserve">
<style type="text/css">
	.st0{fill:#231F20;}
</style>
<g id="Layer_1-2">
	<path class="st0" d="M23.6,37.3h-8.5V23h9.3c5.8,0,8.5,3.4,8.5,7.1C32.9,34.2,29.8,37.3,23.6,37.3z M22.8,26.7h-2.1   c0,5,0,5.6,0,6.9h2.1c3.2,0,4.9-1.5,4.9-3.4C27.5,28.2,26.5,26.7,22.8,26.7L22.8,26.7z"></path>
	<path class="st0" d="M45.7,23h15.2v3.5h-9.7c0,1.4,0,1.4,0,1.9h8.3v3.5h-8.2v1.8h10v3.6H45.7L45.7,23L45.7,23z"></path>
	<path class="st0" d="M87.5,35.5h-7.4l-1.1,1.8h-5.3L82.1,23h4.6l8,14.3h-6.2L87.5,35.5L87.5,35.5z M82.2,31.6h3.3l-1.7-3.1   L82.2,31.6z"></path>
	<path class="st0" d="M111.9,30.4c0,1,0,1.7,0,6.9h-5.4V23h3.5l9,6.5c0-0.9,0-1.6,0-6.5h5.3v14.3h-2.9L111.9,30.4L111.9,30.4z"></path>
	<path class="st0" d="M169,26.8c-0.8-0.2-2.1-0.4-3.4-0.4c-2.6,0-4.4,1.4-4.4,3.7c0,2.3,2,3.8,4.4,3.8c1.4,0,2.8-0.4,3.9-0.9   c0-0.1,0-0.4,0-0.8H165V29h9.6v5.8c-0.8,0.6-2,1.3-3.4,1.8c-1.4,0.5-3.3,1-5.6,1c-5.2,0-9.7-2.6-9.7-7.5s5.2-7.4,9.7-7.4   c0.8,0,2.7,0.1,4.4,0.5c1.7,0.5,4,1.7,4.8,2.3l-2.3,2.8C171.5,27.4,169.7,27,169,26.8L169,26.8z"></path>
	<path class="st0" d="M197.4,37.6c-6,0-9.2-2.9-9.1-7.4c0-1.1,0-2.3,0-7.2h5.4l0,6.7c0,2.8,1.5,3.7,3.7,3.7c2,0,3.5-1.2,3.5-3.8V23   h5.4v7C206.3,34.7,203.2,37.6,197.4,37.6L197.4,37.6z"></path>
	<path class="st0" d="M219.3,23h5.5v14.3h-5.5V23z"></path>
	<path class="st0" d="M246.4,37.3h-8.5V23h9.3c5.8,0,8.5,3.4,8.5,7.1C255.7,34.2,252.6,37.3,246.4,37.3L246.4,37.3z M245.5,26.7   h-2.1c0,5,0,5.6,0,6.9h2.1c3.2,0,4.9-1.5,4.9-3.4C250.3,28.2,249.3,26.7,245.5,26.7L245.5,26.7z"></path>
	<path class="st0" d="M279.7,35.5h-7.4l-1.1,1.8H266l8.4-14.3h4.6l8,14.3h-6.2L279.7,35.5L279.7,35.5z M274.4,31.6h3.3l-1.7-3.1   L274.4,31.6z"></path>
</g>
</svg>
