<?xml version="1.0" encoding="UTF-8" ?><svg id="Layer_1" data-name="Layer 1" xmlns="http://www.w3.org/2000/svg" viewBox="0 0 107.58 38.74"><title>amazon-color</title><path d="M46.32,24.45a19.35,19.35,0,0,1-10.93,3.34A19.78,19.78,0,0,1,22,22.7c-.28-.25,0-.59.3-.4A26.89,26.89,0,0,0,35.7,25.85a26.47,26.47,0,0,0,10.19-2.09C46.39,23.55,46.81,24.09,46.32,24.45Z" fill="#f6921e" fill-rule="evenodd"/><path d="M47.55,23.05c-.37-.49-2.5-.23-3.45-.12-.29,0-.33-.22-.07-.4,1.69-1.19,4.46-.85,4.79-.45s-.09,3.18-1.68,4.51c-.24.2-.47.1-.36-.17C47.13,25.53,47.93,23.53,47.55,23.05Z" fill="#f6921e" fill-rule="evenodd"/><path d="M44.17,14.13V13a.28.28,0,0,1,.29-.29h5.18a.3.3,0,0,1,.3.3v1a1.59,1.59,0,0,1-.39.72l-2.68,3.83a5.78,5.78,0,0,1,3,.64.51.51,0,0,1,.27.45v1.23c0,.17-.18.37-.38.26a6,6,0,0,0-5.47,0c-.18.1-.37-.09-.37-.26V19.67a1.41,1.41,0,0,1,.2-.79l3.1-4.46h-2.7A.28.28,0,0,1,44.17,14.13Z" fill="#231f20" fill-rule="evenodd"/><path d="M25.29,21.35H23.71a.3.3,0,0,1-.28-.27V13a.3.3,0,0,1,.3-.29H25.2a.29.29,0,0,1,.29.27v1h0a2.16,2.16,0,0,1,4.11,0,2.33,2.33,0,0,1,4-.61A4.3,4.3,0,0,1,34,16v5.1a.3.3,0,0,1-.31.29H32.15a.29.29,0,0,1-.28-.29V16.77a9.45,9.45,0,0,0-.05-1.51.81.81,0,0,0-.92-.7,1.05,1.05,0,0,0-.94.66,5,5,0,0,0-.15,1.55v4.29a.3.3,0,0,1-.3.29H27.93a.3.3,0,0,1-.28-.29V16.77c0-.9.15-2.23-1-2.23s-1.09,1.3-1.09,2.23v4.29A.3.3,0,0,1,25.29,21.35Z" fill="#231f20" fill-rule="evenodd"/><path d="M54.39,12.54c2.34,0,3.6,2,3.6,4.55s-1.39,4.43-3.6,4.43-3.54-2-3.54-4.51S52.11,12.54,54.39,12.54Zm0,1.65c-1.16,0-1.24,1.58-1.24,2.56s0,3.1,1.22,3.1,1.28-1.7,1.28-2.74A7.64,7.64,0,0,0,55.44,15,1,1,0,0,0,54.41,14.19Z" fill="#231f20" fill-rule="evenodd"/><path d="M61,21.35H59.46a.3.3,0,0,1-.29-.29V13a.3.3,0,0,1,.3-.26h1.47a.3.3,0,0,1,.28.22v1.24h0a2.14,2.14,0,0,1,2.15-1.63,2.05,2.05,0,0,1,1.84,1A5.16,5.16,0,0,1,65.64,16v5.08a.3.3,0,0,1-.3.26H63.76a.3.3,0,0,1-.28-.26V16.7c0-.88.1-2.17-1-2.17a1,1,0,0,0-.91.64,3.63,3.63,0,0,0-.25,1.53v4.36A.3.3,0,0,1,61,21.35Z" fill="#231f20" fill-rule="evenodd"/><path d="M66.63,20.71A.75.75,0,0,1,67.4,20a.74.74,0,1,1,0,1.47A.75.75,0,0,1,66.63,20.71Z" fill="#231f20" fill-rule="evenodd"/><path d="M83.31,21.35a.3.3,0,0,1-.29-.29V13a.29.29,0,0,1,.28-.26h.58a.29.29,0,0,1,.3.26v1.18a2.48,2.48,0,0,1,2.15-1.66h.12a2.19,2.19,0,0,1,2,1.86,2.61,2.61,0,0,1,2.34-1.86H91a2.18,2.18,0,0,1,1.88,1.24,5.54,5.54,0,0,1,.35,2.47v4.86a.29.29,0,0,1-.28.29h-.69a.3.3,0,0,1-.29-.25V16.2a4.12,4.12,0,0,0-.21-1.72,1.41,1.41,0,0,0-1.19-.9,1.79,1.79,0,0,0-1.38,1,3.63,3.63,0,0,0-.41,2.14V21.1a.31.31,0,0,1-.28.25h-.69a.3.3,0,0,1-.29-.29V15.87a3.29,3.29,0,0,0-.25-1.46A1.45,1.45,0,0,0,86,13.58a1.83,1.83,0,0,0-1.29.85,3.45,3.45,0,0,0-.46,2v4.66a.29.29,0,0,1-.28.29Z" fill="#231f20"/><path d="M78.57,21.52c-2.24,0-3.24-2.28-3.24-4.56s1.18-4.47,3.43-4.47h.12c2.19,0,3.28,2.21,3.28,4.49S81,21.52,78.69,21.52h-.12Zm.16-1.11a1.87,1.87,0,0,0,1.66-1.24A5.33,5.33,0,0,0,80.76,17a4.92,4.92,0,0,0-.47-2.36,1.92,1.92,0,0,0-1.56-1A1.87,1.87,0,0,0,77.1,14.8,5.62,5.62,0,0,0,76.73,17a5.66,5.66,0,0,0,.43,2.36A1.84,1.84,0,0,0,78.73,20.41Z" fill="#231f20"/><path d="M71.58,20.38c1,0,1.53-.84,1.75-1.88a.31.31,0,0,1,.29-.23h.66a.29.29,0,0,1,.29.27c-.3,1.77-1.37,3-2.9,3h-.12c-2.22,0-3.17-2.23-3.17-4.49s1-4.54,3.19-4.54h.12c1.54,0,2.64,1.18,2.87,3a.28.28,0,0,1-.26.26h-.7a.34.34,0,0,1-.26-.29c-.17-1-.74-1.78-1.68-1.81-1.51.05-1.94,1.91-1.94,3.33S70.07,20.33,71.58,20.38Z" fill="#231f20"/><path d="M40,17.49a3.09,3.09,0,0,1-.29,1.67,1.28,1.28,0,0,1-1.09.71c-.61,0-1-.46-1-1.14,0-1.34,1.2-1.58,2.34-1.58Zm1.59,3.84a.32.32,0,0,1-.37,0,3.63,3.63,0,0,1-.9-1.05,3.14,3.14,0,0,1-2.6,1.15A2.24,2.24,0,0,1,35.4,19a2.68,2.68,0,0,1,1.68-2.57,11.05,11.05,0,0,1,3-.55v-.2a2,2,0,0,0-.19-1.14,1,1,0,0,0-.88-.41,1.21,1.21,0,0,0-1.27.94c0,.15-.13.29-.27.29L35.9,15.2a.27.27,0,0,1-.23-.33c.35-1.85,2-2.41,3.52-2.41a3.57,3.57,0,0,1,2.37.78c.77.72.69,1.67.69,2.71v2.46a2.17,2.17,0,0,0,.6,1.46.29.29,0,0,1,0,.41l-1.21,1Z" fill="#231f20" fill-rule="evenodd"/><path d="M19.4,17.49a3.1,3.1,0,0,1-.3,1.67,1.28,1.28,0,0,1-1.09.71c-.6,0-1-.46-1-1.14,0-1.34,1.2-1.58,2.34-1.58ZM21,21.33a.33.33,0,0,1-.38,0,3.8,3.8,0,0,1-.9-1.05,3.13,3.13,0,0,1-2.6,1.15A2.24,2.24,0,0,1,14.76,19a2.68,2.68,0,0,1,1.68-2.57,10.91,10.91,0,0,1,3-.55v-.2a2,2,0,0,0-.19-1.14,1.07,1.07,0,0,0-.89-.41,1.2,1.2,0,0,0-1.26.94.32.32,0,0,1-.28.29l-1.52-.16a.28.28,0,0,1-.24-.33c.35-1.85,2-2.41,3.52-2.41a3.55,3.55,0,0,1,2.37.78c.77.72.7,1.67.7,2.71v2.46a2.16,2.16,0,0,0,.59,1.46.29.29,0,0,1,0,.41c-.33.27-.9.77-1.21,1Z" fill="#231f20" fill-rule="evenodd"/></svg>