<?xml version="1.0" encoding="UTF-8" ?><svg id="Layer_1" data-name="Layer 1" xmlns="http://www.w3.org/2000/svg" viewBox="0 0 107.58 38.74"><title>bam-color</title><path d="M14.33,16.32a1.86,1.86,0,0,1,.21,1.52,1.48,1.48,0,0,1-1.12,1,1.79,1.79,0,0,1,1.16.88,1.83,1.83,0,0,1,0,1.63c-.49.89-1.87.89-2.31.89H8.53V15.51h3.62A2.6,2.6,0,0,1,14.33,16.32Zm-3.48,1.77h.66c.43,0,.7-.1.7-.55s-.27-.55-.7-.55h-.66Zm0,2.73h.75c.43,0,.7-.1.7-.55s-.27-.55-.7-.55h-.75Z" fill="#00539e"/><path d="M15.25,19A3.63,3.63,0,0,1,19,15.4a3.57,3.57,0,1,1,0,7.14A3.63,3.63,0,0,1,15.25,19ZM19,20.39A1.4,1.4,0,0,0,20.39,19,1.39,1.39,0,1,0,19,20.39Z" fill="#00539e"/><path d="M23.27,19A3.75,3.75,0,1,1,27,22.54,3.62,3.62,0,0,1,23.27,19ZM27,20.39A1.4,1.4,0,0,0,28.41,19,1.4,1.4,0,1,0,27,20.39Z" fill="#00539e"/><path d="M45.69,20.07a1,1,0,1,0-1-1A1,1,0,0,0,45.69,20.07Z" fill="#00539e"/><path d="M55.21,20.07a1,1,0,0,0,1-1,1,1,0,1,0-1,1Z" fill="#00539e"/><path d="M33.8,15.51v2.82l1.77-2.82h2.52l-2,3.11,2.32,3.66H35.63L33.8,19.4v2.88H31.48V15.51Z" fill="#00539e"/><path d="M42.24,17.51c-.16-.44-.31-.61-.75-.66a.84.84,0,0,0-.74.22.42.42,0,0,0,0,.4c.15.37.71.34,1,.37a2.34,2.34,0,0,1,2,1.05,2.54,2.54,0,0,1,0,2.14,2.78,2.78,0,0,1-2.25,1.43,3.28,3.28,0,0,1-2.68-.83,2.15,2.15,0,0,1-.42-.76l1.65-.62a1.09,1.09,0,0,0,1,.7.74.74,0,0,0,.66-.29.42.42,0,0,0,0-.42c-.16-.3-.58-.29-1-.31a2.34,2.34,0,0,1-2-1.09,2.33,2.33,0,0,1,0-2.15,2.49,2.49,0,0,1,2-1.3A3.34,3.34,0,0,1,43.4,16a1.94,1.94,0,0,1,.42.85Z" fill="#00539e"/><path d="M48.76,22.32H46.2l4.08-6.94h.22l4.08,6.94H52l-.38-.83h-2.5Zm1.62-3.59L49.79,20H51Z" fill="#00539e"/><path d="M57.12,15.43l3.22,2.67,3.39-2.67h.17l.21,6.85H61.88l-.13-2.48-1.41,1.13L58.8,19.74l-.1,2.54H56.64l.29-6.85Z" fill="#00539e"/><path d="M67.5,15.51v6.77H65.19V15.51Z" fill="#00539e"/><path d="M71.1,15.51v5.21h2v1.56H68.79V15.51Z" fill="#00539e"/><path d="M76.4,15.51v5.21h2v1.56H74.08V15.51Z" fill="#00539e"/><path d="M81.47,15.51v6.77H79.16V15.51Z" fill="#00539e"/><path d="M82.06,19a3.75,3.75,0,1,1,3.75,3.57A3.63,3.63,0,0,1,82.06,19Zm3.77,1.42A1.4,1.4,0,0,0,87.2,19a1.39,1.39,0,1,0-1.37,1.42Z" fill="#00539e"/><path d="M90.37,15.43l4.35,2.73V15.51H97v7h-.17l-4.43-2.74v2.56H90.13V15.43Z" fill="#00539e"/><path d="M97.68,16.22a.57.57,0,1,1,.57.59A.57.57,0,0,1,97.68,16.22Zm.57.71a.71.71,0,1,0-.71-.71A.7.7,0,0,0,98.25,16.93Zm-.15-.65h.15l.21.35h.14l-.23-.36a.21.21,0,0,0,.21-.22c0-.16-.1-.23-.29-.23H98v.81h.12Zm0-.11v-.25h.17c.09,0,.18,0,.18.12s-.09.13-.2.13Z" fill="#00539e"/></svg>