<?xml version="1.0" encoding="UTF-8" ?><svg id="Layer_1" data-name="Layer 1" xmlns="http://www.w3.org/2000/svg" viewBox="0 0 107.58 38.74"><title>bn-color</title><path d="M66.8,18.62c.1,1.69.12,2.18.12,3.64v3.2H64.84V12.93H66.9l1.19,4.45c.21.8.38,1.46.47,2-.06-1.23-.08-2.75-.08-4V12.93h2V25.46H68.65s-1.13-3.86-1.36-4.63a18.14,18.14,0,0,1-.49-2.21Z" fill="#42695b" fill-rule="evenodd"/><path d="M78.06,19.21c0,5.41-.88,6.52-2.94,6.52s-2.93-.84-2.93-6.52c0-5.5.8-6.48,2.93-6.48s2.94,1,2.94,6.48Zm-2.32,0c0-2,0-3.18-.08-4.08S75.45,14,75.12,14s-.5.18-.58,1.09-.05,2.12-.05,4.08c0,2.29,0,3.17.05,4.05s.21,1.06.58,1.06.46-.08.54-1.06.08-1.76.08-4.05Z" fill="#42695b" fill-rule="evenodd"/><path d="M85.68,21.92c0,2.6-1.16,3.54-3.12,3.54h-2.8V12.93h2.82c2.17,0,2.74,1.3,2.74,3.44,0,1.54-.55,2.37-1.55,2.42,1.08,0,1.91,1.09,1.91,3.13Zm-3.75-2.35V24h.57c.67,0,.85-.41.85-2.32,0-1.39-.17-2.11-.88-2.11h-.54V18h.55c.59,0,.7-.52.7-1.59,0-1.47-.14-2-.86-2h-.39v5.17Z" fill="#42695b" fill-rule="evenodd"/><polygon points="89.56 23.59 92.22 23.59 92.22 25.46 87.28 25.46 87.28 12.93 89.56 12.93 89.56 23.59 89.56 23.59" fill="#42695b" fill-rule="evenodd"/><polygon points="95.64 23.59 98.37 23.59 98.37 25.46 93.44 25.46 93.44 12.93 98.03 12.93 98.03 14.81 95.64 14.81 95.64 18.2 97.75 18.2 97.75 19.95 95.64 19.95 95.64 23.59 95.64 23.59" fill="#42695b" fill-rule="evenodd"/><path d="M15.79,21.92c0,2.6-1.16,3.54-3.12,3.54H9.87V12.93h2.82c2.17,0,2.74,1.3,2.74,3.44,0,1.54-.55,2.37-1.55,2.42,1.08,0,1.91,1.09,1.91,3.13ZM12,19.57V24h.57c.67,0,.85-.41.85-2.32,0-1.39-.17-2.11-.88-2.11H12V18h.55c.59,0,.7-.52.7-1.59,0-1.47-.14-2-.86-2H12v5.17Z" fill="#42695b" fill-rule="evenodd"/><path d="M28.22,19c1.41.43,1.57,2.08,1.57,3.6a13.18,13.18,0,0,0,.2,2.83H27.7a9.15,9.15,0,0,1-.16-1.86V22c0-1-.34-1.75-1.05-1.94h-.16v5.4H24.08V12.93h3.34c1.57,0,2.63.91,2.63,3.18,0,2-.85,2.82-1.83,2.92Zm-1.89-4.55v3.67H27c.58,0,.76-.37.76-1.55,0-1.83-.34-2.12-1-2.12Z" fill="#42695b" fill-rule="evenodd"/><path d="M33.89,18.62c.1,1.69.11,2.18.11,3.64v3.2H31.93V12.93H34l1.19,4.45c.21.8.37,1.46.47,2-.06-1.23-.08-2.75-.08-4V12.93h2V25.46H35.73s-1.12-3.86-1.35-4.63a18.14,18.14,0,0,1-.49-2.21Z" fill="#42695b" fill-rule="evenodd"/><polygon points="41.79 23.59 44.51 23.59 44.51 25.46 39.59 25.46 39.59 12.93 44.17 12.93 44.17 14.81 41.79 14.81 41.79 18.2 43.89 18.2 43.89 19.95 41.79 19.95 41.79 23.59 41.79 23.59" fill="#42695b" fill-rule="evenodd"/><path d="M47.81,22.57c0,1.41.29,1.62.8,1.62s.69-.23.69-1.62-.83-2.13-1.77-3.26-1.8-2.42-1.8-3.61c0-1.87.85-3,2.63-3S51,13.7,51,15.54a3.23,3.23,0,0,1-.16,1H49a6.2,6.2,0,0,0,0-.88c0-1.19-.13-1.55-.65-1.55s-.58.47-.58,1.37c0,1.13.91,2,1.63,3,1.07,1.37,1.93,2.46,1.93,3.73,0,2-.86,3.55-2.79,3.55-1.71,0-2.83-.94-2.83-3.11a4.59,4.59,0,0,1,.14-1.36h2a8,8,0,0,0-.1,1.32Z" fill="#42695b" fill-rule="evenodd"/><path d="M16.63,25.47l1.83-12.62h2.15l2.15,12.62H20.43l-.23-2H18.8l-.23,2Zm2.31-3.41h1.15s-.18-1.45-.28-2.4c-.06-.58-.29-2.41-.36-3.62,0,1.24-.23,3.05-.27,3.62-.09.95-.24,2.4-.24,2.4Z" fill="#42695b" fill-rule="evenodd"/><path d="M62.18,18.92a2.16,2.16,0,0,0-1.91,1.38c-.39.89-.82,1.91-1.1,2.48A29.38,29.38,0,0,1,57,18.63a16.6,16.6,0,0,0,2.8-1.73,3.54,3.54,0,0,0,1.23-2.06,2.15,2.15,0,0,0-2.34-2.64,3.83,3.83,0,0,0-3.62,3.12,7.19,7.19,0,0,0,.42,3.33c-1.35.91-2.52,1.91-2.82,3.5-.44,2.6,1.19,3.79,3,3.79a3.83,3.83,0,0,0,3-1.43,3.3,3.3,0,0,0,2.22,1.43,2.89,2.89,0,0,0,2.13-1.26l-.26-.37a2.14,2.14,0,0,1-1.32.76c-.59,0-1.2-.52-1.72-1.34-.06-.13-.15-.26-.21-.39.34-.67.6-1.41.91-2.06.56-1.26.91-1.67,1.43-1.67.86,0,.17,1.45,1.1,1.45a.77.77,0,0,0,.72-.71,1.34,1.34,0,0,0-1.52-1.43Zm-5.61-4a2.16,2.16,0,0,1,2.08-1.84A1.34,1.34,0,0,1,60,14.89a2.47,2.47,0,0,1-.59,1.29A12,12,0,0,1,56.79,18a6.2,6.2,0,0,1-.22-3Zm-.31,10.12a2.14,2.14,0,0,1-2.18-2.6,4.9,4.9,0,0,1,1.71-3,22.18,22.18,0,0,0,2.52,4.59,2.44,2.44,0,0,1-2.05,1Z" fill="#c75c1a" fill-rule="evenodd"/><path d="M56.16,14.52S55,16.33,56.64,20a18.09,18.09,0,0,0,3,4.72,27.61,27.61,0,0,1-2.77-5c-1.36-3.28-.7-5.24-.7-5.24Z" fill="none" stroke="#fff" stroke-miterlimit="2.61" stroke-width="0.13"/></svg>