<?xml version="1.0" encoding="utf-8"?>
<!-- Generator: Adobe Illustrator 25.0.1, SVG Export Plug-In . SVG Version: 6.00 Build 0)  -->
<svg version="1.1" id="Layer_1" xmlns="http://www.w3.org/2000/svg" xmlns:xlink="http://www.w3.org/1999/xlink" x="0px" y="0px"
	 viewBox="0 0 107.6 38.7" style="enable-background:new 0 0 107.6 38.7;" xml:space="preserve">
<style type="text/css">
	.st0{fill-rule:evenodd;clip-rule:evenodd;fill:#573BA3;}
	.st1{fill:#2B0F42;}
	.st2{fill-rule:evenodd;clip-rule:evenodd;fill:#2B0F42;}
</style>
<path class="st0" d="M24.2,16.2c0-0.1,0-0.3,0-0.4c0-0.2,0-0.3,0-0.5c-0.1-0.7-0.4-1.3-0.9-1.8c-0.3-0.3-0.5-0.5-0.9-0.7
	c-0.2-0.1-0.4-0.2-0.7-0.3c-0.6-0.2-1.2-0.2-1.8-0.2h-0.5l-7.5,0H8.4c-0.1,0-0.2,0.1-0.2,0.2V13c0,0.1,0.1,0.2,0.1,0.2h0.1
	c0.1,0,0.2,0,0.3,0c0.2,0,0.5,0,0.7,0.1c0.1,0,0.2,0.1,0.2,0.1c0.1,0.1,0.2,0.2,0.2,0.4c0,0.3,0,0.5,0,0.8v2.3c0,0.2,0,0.3,0,0.4
	l0,0c0,0.2,0,0.3,0,0.4c0,0.2,0,0.4-0.2,0.5c-0.1,0.1-0.3,0.1-0.4,0.1H9.3c-0.1,0-0.2,0-0.3,0c-0.1,0-0.3,0-0.5,0H8.3
	c0,0-0.1,0-0.1,0.1c0,0,0,0.1,0,0.1V19c0,0.1,0.1,0.2,0.1,0.2h0.1c0.2,0,0.3,0,0.4,0h0.3h0.3h0c0.2,0,0.3,0,0.4,0.2c0,0,0,0.1,0,0.2
	v0c0,0.2,0,0.3,0,0.5c0,0.2,0,0.3,0,0.4v1.5c0,0.1,0,0.2,0,0.3c0,0.3,0,0.7,0,1c0,0.2-0.1,0.5-0.3,0.7c-0.2,0.2-0.4,0.2-0.6,0.2H8.8
	H8.8H8.6c-0.1,0-0.1,0-0.2,0H8.3c-0.1,0-0.1,0.1-0.1,0.1l0,0c0,0,0,0.1,0,0.1v0.5c0,0,0,0.1,0,0.1c0.1,0,0.1,0.1,0.2,0.1h11.1
	c0.2,0,0.5,0,0.8,0h0.1c0.3,0,0.6,0,0.9-0.1c0.2,0,0.4-0.1,0.6-0.1c0.2-0.1,0.4-0.2,0.7-0.3c0.3-0.2,0.6-0.4,0.9-0.7
	c0.5-0.5,0.8-1.1,0.9-1.8c0-0.1,0-0.3,0-0.4c0-0.2,0-0.3,0-0.5c-0.1-0.9-0.6-1.7-1.4-2.2l-0.4-0.3l0.4-0.3
	C23.6,17.9,24.1,17.1,24.2,16.2z M22.8,20.2c0.4,0.4,0.6,0.9,0.6,1.5l0,0c0,0.6-0.2,1.1-0.6,1.5c-0.2,0.3-0.5,0.5-0.7,0.6
	c-0.1,0-0.2,0.1-0.2,0.1c-0.6,0.3-1.4,0.3-2.1,0.2h-0.5h-7.9c-0.2,0-0.4-0.1-0.5-0.2c-0.1-0.1-0.2-0.3-0.2-0.5v-3.9
	c0-0.2,0.2-0.4,0.3-0.4h3.4c0.8,0,1.8,0,2.6,0h2.3h0.4c0.6,0,1.2,0,1.8,0.2C22.1,19.5,22.5,19.8,22.8,20.2L22.8,20.2z M22.1,17.9
	L22.1,17.9c-0.6,0.4-1.4,0.4-2,0.4c-1.8,0-3.6,0-5.1,0h-3.9c-0.2,0-0.4-0.2-0.4-0.4c0-0.9,0-1.7,0-2.4v-1.7c0-0.3,0.2-0.5,0.5-0.5
	h4.2c0.4,0,0.7,0,1.1,0h0c0.6,0,1.2,0,1.9,0c0.3,0,0.6,0,0.9,0h0c0.4,0,0.7,0,1.1,0c0.6,0,1.3,0.1,1.9,0.5c0.5,0.3,0.9,0.8,1.1,1.4
	c0.1,0.2,0.1,0.4,0.1,0.6v0c0,0.6-0.2,1.1-0.6,1.5C22.6,17.5,22.4,17.7,22.1,17.9z"/>
<path class="st1" d="M33.7,18.6c0.5,0,0.9,0.1,1.3,0.3c0.4,0.2,0.6,0.4,0.8,0.7c0.2,0.3,0.3,0.6,0.3,1c0,0.4-0.1,0.7-0.3,1.1
	c-0.2,0.3-0.5,0.6-0.9,0.8c-0.4,0.2-0.9,0.3-1.5,0.3h-3.9v-0.3c0.3,0,0.5-0.1,0.7-0.1c0.2-0.1,0.3-0.2,0.3-0.4
	c0.1-0.2,0.1-0.4,0.1-0.7v-4.6c0-0.3,0-0.6-0.1-0.7c-0.1-0.2-0.2-0.3-0.3-0.4c-0.1-0.1-0.4-0.1-0.6-0.1v-0.3h3.8
	c0.8,0,1.4,0.2,1.8,0.5c0.4,0.3,0.6,0.8,0.6,1.4c0,0.3-0.1,0.6-0.3,0.9c-0.2,0.3-0.4,0.5-0.7,0.6C34.5,18.4,34.1,18.5,33.7,18.6
	l-0.4-0.1v0.1H33.7z M31.7,15.3v3h1.2c0.5,0,0.9-0.1,1.1-0.4c0.3-0.3,0.4-0.6,0.4-1.1c0-0.6-0.1-1-0.4-1.2c-0.3-0.2-0.7-0.3-1.2-0.3
	H31.7z M33.1,22.2c0.5,0,1-0.1,1.2-0.4c0.3-0.3,0.4-0.7,0.4-1.2c0-0.5-0.2-0.9-0.5-1.2c-0.3-0.3-0.7-0.5-1.3-0.5h-1.3v2.7
	c0,0.2,0.1,0.4,0.2,0.5c0.1,0.1,0.3,0.2,0.5,0.2H33.1z"/>
<path class="st1" d="M39.7,22.7c-0.5,0-1-0.1-1.4-0.4c-0.4-0.2-0.7-0.6-1-1c-0.2-0.4-0.4-0.9-0.4-1.5c0-0.5,0.1-1,0.4-1.5
	c0.2-0.4,0.6-0.8,1-1c0.4-0.2,0.9-0.4,1.4-0.4c0.5,0,1,0.1,1.4,0.4c0.4,0.2,0.7,0.6,1,1c0.2,0.4,0.4,0.9,0.4,1.5
	c0,0.5-0.1,1-0.4,1.5c-0.2,0.4-0.6,0.8-1,1C40.7,22.6,40.2,22.7,39.7,22.7z M39.7,22.2c1,0,1.5-0.8,1.5-2.3c0-1.6-0.5-2.3-1.5-2.3
	s-1.5,0.8-1.5,2.3C38.3,21.4,38.7,22.2,39.7,22.2z"/>
<path class="st1" d="M46.1,22.7c-0.5,0-1-0.1-1.4-0.4c-0.4-0.2-0.7-0.6-1-1c-0.2-0.4-0.4-0.9-0.4-1.5c0-0.5,0.1-1,0.4-1.5
	c0.2-0.4,0.6-0.8,1-1c0.4-0.2,0.9-0.4,1.4-0.4c0.5,0,1,0.1,1.4,0.4c0.4,0.2,0.7,0.6,1,1c0.2,0.4,0.4,0.9,0.4,1.5
	c0,0.5-0.1,1-0.4,1.5c-0.2,0.4-0.6,0.8-1,1C47.1,22.6,46.7,22.7,46.1,22.7z M46.1,22.2c1,0,1.5-0.8,1.5-2.3c0-1.6-0.5-2.3-1.5-2.3
	c-1,0-1.5,0.8-1.5,2.3C44.7,21.4,45.2,22.2,46.1,22.2z"/>
<path class="st1" d="M49.5,22.3c0.3,0,0.4-0.1,0.6-0.1c0.1-0.1,0.2-0.1,0.3-0.2c0.1-0.1,0.1-0.2,0.1-0.4v-6c0-0.2,0-0.4-0.1-0.4
	C50.3,15,50.1,15,50,15c-0.1,0-0.2,0-0.4,0v-0.3l1.7-0.4h0.3v7.2c0,0.2,0,0.3,0.1,0.4c0,0.1,0.1,0.2,0.2,0.2c0.1,0,0.2,0.1,0.4,0.1
	v0.3h-2.7V22.3z M51.7,19.8l1.6-1.3c0.2-0.2,0.3-0.3,0.4-0.4c0.1-0.1,0.1-0.2,0.1-0.3c0-0.1,0-0.2-0.1-0.2c-0.1,0-0.2-0.1-0.4-0.1
	v-0.3h2.3v0.3c-0.2,0-0.5,0.1-0.7,0.2c-0.2,0.1-0.4,0.3-0.7,0.5l-1.3,1.1l0,0.1l1.8,2.1c0.2,0.2,0.4,0.4,0.5,0.5
	c0.2,0.1,0.4,0.2,0.6,0.3v0.3h-1.7L51.7,19.8z"/>
<path class="st1" d="M58.1,22.7c-0.3,0-0.6,0-1-0.1c-0.3-0.1-0.6-0.2-0.9-0.4v-1.3h0.4c0.1,0.5,0.3,0.8,0.6,1c0.3,0.2,0.6,0.4,1,0.4
	c0.3,0,0.6-0.1,0.7-0.2c0.2-0.1,0.3-0.3,0.3-0.6c0-0.2-0.1-0.4-0.2-0.5c-0.1-0.1-0.3-0.2-0.5-0.3l-1-0.4c-0.4-0.1-0.7-0.3-0.9-0.6
	c-0.2-0.3-0.3-0.6-0.3-0.9c0-0.5,0.2-0.9,0.6-1.2c0.4-0.3,0.9-0.4,1.5-0.4c0.3,0,0.6,0,0.8,0.1c0.3,0.1,0.6,0.1,0.8,0.2v1.2h-0.4
	c-0.1-0.3-0.2-0.6-0.5-0.8c-0.2-0.2-0.5-0.3-0.9-0.3c-0.3,0-0.5,0.1-0.7,0.2c-0.2,0.1-0.3,0.3-0.3,0.5c0,0.2,0.1,0.4,0.2,0.5
	c0.1,0.1,0.3,0.2,0.5,0.3l1.2,0.4c0.8,0.3,1.1,0.8,1.1,1.5c0,0.5-0.2,0.9-0.6,1.3C59.3,22.6,58.8,22.7,58.1,22.7z"/>
<path class="st1" d="M60.9,22.3c0.2,0,0.4-0.1,0.6-0.1c0.1,0,0.2-0.1,0.3-0.2c0.1-0.1,0.1-0.3,0.1-0.4v-6c0-0.2,0-0.4-0.1-0.4
	C61.6,15,61.5,15,61.3,15c-0.1,0-0.2,0-0.4,0v-0.3l1.7-0.4h0.3v2.6c0,0.3,0,0.6-0.1,0.9c0,0.2-0.1,0.5-0.2,0.7l0.1,0
	c0.1-0.5,0.4-0.8,0.7-1.1c0.3-0.3,0.7-0.4,1.2-0.4c0.5,0,0.9,0.2,1.2,0.5c0.3,0.3,0.5,0.8,0.5,1.4v2.6c0,0.2,0,0.4,0.1,0.5
	c0.1,0.1,0.1,0.2,0.3,0.2c0.1,0,0.3,0.1,0.6,0.1v0.3h-2.7v-0.3c0.3-0.1,0.5-0.1,0.5-0.2c0.1-0.1,0.1-0.2,0.1-0.4v-2.5
	c0-0.4-0.1-0.7-0.3-0.9c-0.2-0.2-0.5-0.3-0.8-0.3c-0.3,0-0.6,0.1-0.8,0.2c-0.2,0.1-0.4,0.3-0.5,0.6v2.9c0,0.2,0,0.3,0.1,0.4
	c0,0.1,0.1,0.2,0.2,0.2c0.1,0,0.2,0.1,0.4,0.1v0.3h-2.7V22.3z"/>
<path class="st1" d="M70.6,22.7c-0.5,0-1-0.1-1.4-0.4c-0.4-0.2-0.7-0.6-1-1c-0.2-0.4-0.4-0.9-0.4-1.5c0-0.5,0.1-1,0.4-1.5
	c0.2-0.4,0.6-0.8,1-1c0.4-0.2,0.9-0.4,1.4-0.4c0.5,0,1,0.1,1.4,0.4c0.4,0.2,0.7,0.6,1,1c0.2,0.4,0.4,0.9,0.4,1.5
	c0,0.5-0.1,1-0.4,1.5c-0.2,0.4-0.6,0.8-1,1C71.6,22.6,71.1,22.7,70.6,22.7z M70.6,22.2c1,0,1.5-0.8,1.5-2.3c0-1.6-0.5-2.3-1.5-2.3
	c-1,0-1.5,0.8-1.5,2.3C69.1,21.4,69.6,22.2,70.6,22.2z"/>
<path class="st1" d="M73.9,24.7c0.2,0,0.4-0.1,0.6-0.1c0.1,0,0.2-0.1,0.3-0.2c0.1-0.1,0.1-0.2,0.1-0.4v-5.5c0-0.2,0-0.3-0.1-0.4
	C74.6,18,74.5,18,74.3,18c-0.1,0-0.2,0-0.5,0v-0.3l1.6-0.5h0.3v0.6c0,0.1,0,0.4-0.1,0.7l0.1,0c0.1-0.4,0.4-0.8,0.7-1.1
	c0.3-0.3,0.7-0.4,1.2-0.4c0.4,0,0.8,0.1,1.1,0.3c0.3,0.2,0.6,0.5,0.7,0.9c0.2,0.4,0.3,0.8,0.3,1.3c0,0.6-0.1,1.2-0.4,1.6
	c-0.2,0.5-0.6,0.9-1,1.1c-0.4,0.3-0.9,0.4-1.4,0.4c-0.4,0-0.8-0.1-1.1-0.3V24c0,0.2,0,0.4,0.1,0.5c0.1,0.1,0.2,0.2,0.3,0.2
	c0.2,0,0.4,0.1,0.7,0.1v0.3h-3.1V24.7z M77,22.3c0.5,0,0.9-0.2,1.1-0.6c0.3-0.4,0.4-1,0.4-1.7c0-0.6-0.1-1.1-0.4-1.5
	C78,18.1,77.6,18,77.2,18c-0.3,0-0.5,0.1-0.7,0.2c-0.2,0.1-0.4,0.3-0.5,0.5v3.2c0.2,0.2,0.3,0.3,0.5,0.4
	C76.6,22.2,76.8,22.3,77,22.3z"/>
<path class="st2" d="M85.6,22.8c-0.5,0-1-0.1-1.4-0.4c-0.4-0.3-0.7-0.6-1-1c-0.2-0.4-0.3-0.9-0.3-1.5s0.1-1,0.3-1.5
	c0.2-0.4,0.6-0.8,1-1c0.4-0.3,0.9-0.4,1.4-0.4c0.5,0,1,0.1,1.4,0.4c0.4,0.3,0.7,0.6,1,1c0.2,0.4,0.3,0.9,0.3,1.5s-0.1,1-0.3,1.5
	c-0.2,0.4-0.6,0.8-1,1C86.6,22.7,86.1,22.8,85.6,22.8z M85.6,22.3c1.1,0,1.6-0.8,1.6-2.4s-0.5-2.4-1.6-2.4c-1.1,0-1.6,0.8-1.6,2.4
	S84.5,22.3,85.6,22.3z M92.6,17c0.1,0,0.3,0,0.3,0v1.1h-0.2c-0.1-0.1-0.3-0.1-0.5-0.1c-0.4,0-0.6,0.1-0.9,0.3
	c-0.2,0.2-0.3,0.5-0.3,1v2.2c0,0.2,0,0.4,0.1,0.5c0.1,0.1,0.2,0.2,0.3,0.2c0.2,0,0.4,0.1,0.7,0.1v0.3h-3v-0.3c0.3,0,0.5-0.1,0.6-0.1
	c0.1,0,0.2-0.1,0.3-0.2c0.1-0.1,0.1-0.3,0.1-0.5v-3.2c0-0.2,0-0.3-0.1-0.4c-0.1-0.1-0.2-0.1-0.4-0.1l-0.5,0v-0.3l1.6-0.4H91V18
	c0,0.5,0,0.9,0,1.2H91l0.1-0.6c0.1-0.5,0.3-0.9,0.6-1.2C92,17.2,92.3,17,92.6,17z M97.5,17.5c0.4,0.1,0.7,0.2,1,0.2h0.4v-0.6h-2
	C96.7,17.1,96.4,17,96,17c-0.4,0-0.8,0.1-1.2,0.2c-0.3,0.2-0.6,0.4-0.8,0.7c-0.2,0.3-0.3,0.6-0.3,1c0,0.3,0.1,0.7,0.2,0.9
	c0.2,0.3,0.4,0.5,0.7,0.7v0.1c-0.3,0.1-0.5,0.3-0.7,0.4c-0.1,0.2-0.2,0.4-0.2,0.6c0,0.3,0.1,0.5,0.2,0.7c0.2,0.2,0.4,0.3,0.6,0.4
	v0.1c-0.4,0.1-0.7,0.3-0.9,0.5c-0.2,0.2-0.3,0.4-0.3,0.7c0,0.3,0.1,0.5,0.3,0.7c0.2,0.2,0.5,0.4,0.8,0.5c0.4,0.1,0.8,0.2,1.3,0.2
	c0.7,0,1.3-0.1,1.7-0.3c0.5-0.2,0.8-0.5,1-0.8c0.2-0.3,0.3-0.6,0.3-1c0-0.4-0.1-0.8-0.4-1c-0.3-0.2-0.7-0.3-1.2-0.4l-1.8-0.1
	c-0.3,0-0.5-0.1-0.6-0.2c-0.1-0.1-0.2-0.2-0.2-0.4c0-0.1,0.1-0.3,0.2-0.4c0.1-0.1,0.3-0.2,0.5-0.2c0.2,0.1,0.5,0.1,0.8,0.1
	c0.4,0,0.8-0.1,1.1-0.2c0.3-0.2,0.6-0.4,0.8-0.7c0.2-0.3,0.3-0.6,0.3-1C98.3,18.2,98,17.7,97.5,17.5L97.5,17.5z M96.9,20
	c-0.2,0.2-0.5,0.4-0.9,0.4s-0.7-0.1-0.9-0.4c-0.2-0.2-0.3-0.6-0.3-1.1c0-0.5,0.1-0.9,0.3-1.1c0.2-0.3,0.5-0.4,0.9-0.4
	c0.4,0,0.7,0.1,0.9,0.4c0.2,0.3,0.3,0.6,0.3,1.1C97.3,19.4,97.2,19.8,96.9,20z M94.5,23.6c0-0.4,0.2-0.7,0.7-0.9l1.8,0.1
	c0.4,0,0.7,0.1,1,0.2c0.2,0.1,0.4,0.4,0.4,0.7c0,0.3-0.2,0.6-0.5,0.8c-0.3,0.2-0.7,0.3-1.3,0.3c-0.6,0-1.1-0.1-1.5-0.3
	C94.6,24.3,94.5,24,94.5,23.6z M80.8,22.4c0.1,0.1,0.3,0.2,0.5,0.2c0.2,0,0.3-0.1,0.5-0.2c0.1-0.1,0.2-0.3,0.2-0.5
	c0-0.2-0.1-0.3-0.2-0.5c-0.1-0.1-0.3-0.2-0.5-0.2c-0.2,0-0.3,0.1-0.5,0.2c-0.1,0.1-0.2,0.3-0.2,0.5C80.6,22.1,80.7,22.3,80.8,22.4z"
	/>
</svg>
