<?xml version="1.0" encoding="utf-8"?>
<!-- Generator: Adobe Illustrator 24.0.1, SVG Export Plug-In . SVG Version: 6.00 Build 0)  -->
<svg version="1.1" id="Layer_1" xmlns="http://www.w3.org/2000/svg" xmlns:xlink="http://www.w3.org/1999/xlink" x="0px" y="0px"
	 viewBox="0 0 107.6 38.7" style="enable-background:new 0 0 107.6 38.7;" xml:space="preserve">
<style type="text/css">
	.st0{fill:#645F5A;}
	.st1{fill:#C54236;}
</style>
<g>
	<path class="st0" d="M82.9,29.2c-0.2-0.3-0.5-0.2-0.8-0.4c-0.9-0.4-1.3-1-1.2-1.8c0.1-0.7,0.7-1.2,1.4-0.9c0.3,0.1,0.7,0.2,0.2,0.7
		c-0.4,0.3-0.2,0.8,0.2,1.2c0.9,0.8,3.2,0.6,4-0.2c0.3-0.4,0.5-0.8,0.3-1.3c-0.2-0.5-0.6-0.6-1-0.7c-0.9-0.1-1.8-0.1-2.7-0.1
		c-1.4-0.1-2.1-1-1.9-2.2c0.1-0.7,0.7-1.1,1.4-1.4c-0.9-0.4-1.4-1.1-1.5-2c-0.1-1.4,0.8-2.6,2.3-2.9c1-0.2,1.9-0.2,2.8,0.3
		c0.3,0.1,0.4,0.1,0.7-0.1c0.4-0.3,0.8-0.5,1.3-0.5c0.5,0,0.9,0.1,1.1,0.6c0.1,0.3,0.1,0.7-0.2,0.9c-0.3,0.2-0.6,0.2-0.9,0
		c-0.3-0.2-0.5-0.5-1-0.3c0.5,0.7,0.7,1.5,0.5,2.3c-0.3,1.1-1.2,1.8-2.6,1.9c-0.5,0-1,0.1-1.4,0.2c-0.3,0.1-0.7,0.2-0.6,0.7
		c0.1,0.4,0.4,0.5,0.8,0.5c0.8,0,1.6,0,2.4,0.1c1.5,0.2,2.4,0.8,2.5,2c0.2,1.6-0.5,2.7-2,3.1C86.3,29,86,29,85.8,29.2
		C84.9,29.2,83.9,29.2,82.9,29.2z M85.4,19.8c0-0.4,0-0.8-0.1-1.3c-0.1-0.5-0.4-0.8-0.9-0.8c-0.5,0-0.8,0.3-0.9,0.7
		c-0.2,0.8-0.2,1.7,0,2.5c0.1,0.4,0.4,0.7,0.8,0.7c0.5,0,0.8-0.2,0.9-0.7C85.5,20.6,85.5,20.2,85.4,19.8z"/>
	<path class="st0" d="M92.7,12.8c0,1.8,0,3.6,0,5.4c0.5-0.3,0.9-0.7,1.5-0.9c2-0.7,3.4,0.3,3.4,2.4c0,1.2,0,2.4,0,3.6
		c0,0.5,0.2,0.8,0.6,0.8c0.3,0,0.3,0.1,0.3,0.4c0,0.3-0.2,0.3-0.4,0.2c-1.1-0.1-2.2,0-3.3,0c-0.2,0-0.5,0.1-0.5-0.2
		c-0.1-0.3,0.2-0.3,0.4-0.4c0.4-0.1,0.6-0.3,0.5-0.7c0-1.2,0-2.5,0-3.7c0-0.5-0.1-1-0.8-1.2c-0.5-0.1-1.1,0.1-1.4,0.6
		c-0.1,0.2-0.2,0.4-0.2,0.6c-0.1,1.3-0.1,2.6,0,3.9c0,0.3,0.2,0.5,0.5,0.5c0.3,0,0.4,0.1,0.3,0.4c0,0.3-0.3,0.2-0.5,0.2
		c-1.2,0-2.3-0.2-3.5,0c-0.2,0-0.3,0-0.3-0.2c0-0.2,0-0.3,0.3-0.4c0.6-0.1,0.8-0.5,0.8-1.1c0-2.7,0-5.4,0-8.1c0-0.5-0.1-0.9-0.7-0.9
		c-0.2,0-0.3-0.1-0.3-0.4c0-0.3,0.2-0.3,0.4-0.3c0.9-0.1,1.8-0.1,2.6-0.5C92.5,12.8,92.6,12.8,92.7,12.8z"/>
	<path class="st0" d="M64.2,12.8c0,1.8,0,3.6,0,5.5c0.7-0.6,1.3-1.1,2.2-1.2C68,17,69,17.9,69,19.6c0,1.2,0,2.5,0,3.7
		c0,0.5,0.1,0.8,0.6,0.8c0.2,0,0.3,0.1,0.3,0.4c0,0.3-0.2,0.3-0.4,0.2c-1.1-0.1-2.2,0-3.4,0c-0.2,0-0.4,0.1-0.5-0.3
		c0-0.3,0.1-0.3,0.3-0.4c0.4-0.1,0.6-0.4,0.6-0.8c0-1.2,0-2.5,0-3.7c0-0.5-0.1-1-0.7-1.2c-0.5-0.2-1.1,0.1-1.5,0.6
		c-0.2,0.3-0.3,0.7-0.3,1.1c0,1,0,2.1,0,3.1c0,0.4,0.1,0.8,0.6,0.9c0.3,0,0.2,0.2,0.2,0.4c0,0.3-0.2,0.2-0.3,0.2
		c-1.2,0-2.4-0.2-3.6,0c-0.2,0-0.3,0-0.3-0.2c0-0.2,0-0.4,0.3-0.4c0.6-0.1,0.8-0.5,0.8-1.1c0-2.7,0-5.4,0-8.1c0-0.4,0-0.8-0.6-0.9
		c-0.2,0-0.4-0.1-0.4-0.4c0-0.3,0.2-0.3,0.5-0.3c0.7,0,1.4-0.2,2.2-0.4c0.1,0,0.2,0,0.2-0.2C63.8,12.8,64,12.8,64.2,12.8z"/>
	<path class="st1" d="M3.8,17.8c0.5,0.1,0.8-0.2,1.3-0.4c1.6-0.6,3.3-1.2,4.9-1.7c0.5-0.1,0.9-0.4,1.4-0.5c0.3-0.1,0.3-0.2,0.2-0.4
		c-0.3-1-0.2-1,0.8-1.2c1.4-0.3,2.7-0.2,4,0.1c0.5,0.1,0.4,0.4,0.3,0.7c-0.2,0.6,0.1,0.8,0.6,1c2.1,0.7,4.3,1.5,6.4,2.3
		c0.8,0.3,0.8,0.3,0.5,1c-0.2,0.4-0.3,0.5-0.7,0.3c-1.8-0.7-3.6-1.3-5.3-1.9c-0.7-0.3-1.5-0.6-2.2-0.8c-0.6-0.1-0.7-0.5-0.4-0.9
		c0.3-0.4,0-0.5-0.3-0.5c-0.6-0.2-1.3-0.2-1.9-0.1c-0.4,0.1-0.5,0.2-0.4,0.6c0.2,0.6-0.2,0.8-0.7,1c-2.4,0.9-4.8,1.7-7.2,2.6
		C4.5,19,4.1,19,4,18.4c0-0.1-0.1-0.2-0.2-0.3C3.8,18,3.8,17.9,3.8,17.8z"/>
	<path class="st0" d="M74.1,12.8c0,3.3,0,6.6,0,9.9c0,0.7,0.1,1.2,0.9,1.3c0.3,0,0.2,0.2,0.2,0.4c0,0.3-0.2,0.2-0.4,0.2
		c-1.3-0.1-2.5-0.1-3.8,0c-0.2,0-0.3,0-0.3-0.2c0-0.2-0.1-0.4,0.2-0.4c1-0.1,0.9-0.8,0.9-1.4c0-2.5,0-5,0-7.6c0-0.5-0.2-0.9-0.7-1
		c-0.3,0-0.3-0.2-0.3-0.4c0-0.3,0.2-0.2,0.4-0.3c0.9-0.2,1.8-0.2,2.7-0.6C73.9,12.8,74,12.8,74.1,12.8z"/>
	<path class="st0" d="M103.7,23.8c-0.6,0.5-1.3,1-2.2,1c-1.5,0-2-0.5-2.1-2c0-1.4,0-2.8,0-4.2c0-0.4,0-0.7-0.5-0.6
		c-0.2,0-0.3,0-0.3-0.3c0-0.2,0-0.4,0.2-0.5c1.1-0.3,1.8-1.1,2.2-2.1c0.1-0.3,0.3-0.3,0.6-0.2c0.3,0,0.2,0.2,0.2,0.4
		c0,0.5,0,1,0,1.5c0,0.3,0.1,0.4,0.4,0.4c0.3,0,0.5,0,0.8,0c0.3,0,0.4,0.1,0.4,0.4c0,0.3-0.2,0.4-0.4,0.4c-1.3,0.1-1.3,0.1-1.3,1.3
		c0,1.2,0,2.4,0,3.6c0,0.3,0,0.6,0.3,0.7c0.3,0.1,0.6,0,0.8-0.2c0.3-0.5,0.5-0.3,0.8,0C103.7,23.6,103.7,23.7,103.7,23.8z"/>
	<path class="st0" d="M78.3,12.8c0.6,0.3,1.1,0.7,1,1.5c-0.1,0.6-0.6,1.1-1.1,1.1c-0.5,0.1-1.2-0.3-1.3-0.8c-0.2-0.6,0-1.2,0.5-1.5
		c0.1-0.1,0.2-0.2,0.3-0.2C77.9,12.8,78.1,12.8,78.3,12.8z"/>
	<path class="st0" d="M32.5,21.4c0,0.5,0,0.9,0,1.4c0,0.8,0.4,1.1,1.2,1.2c0.3,0,0.6-0.1,0.6,0.4c0,0.5-0.4,0.3-0.6,0.3
		c-1.6,0-3.2-0.2-4.8,0c-0.2,0-0.4,0-0.4-0.3c0-0.2,0-0.4,0.3-0.4c0.9-0.1,1.1-0.4,1.1-1.3c0-2.4,0-4.8,0-7.2c0-0.9-0.2-1.1-1.1-1.2
		c-0.3,0-0.4-0.2-0.4-0.4c0-0.3,0.2-0.3,0.4-0.3c1.9,0.2,3.7-0.1,5.6,0c0.7,0,1.3,0.1,2,0.3c1.2,0.4,1.9,1.2,2,2.2
		c0.1,1.7-0.4,2.5-1.8,3.1c-1.1,0.4-2.2,0.5-3.4,0.5c-0.5,0-0.6,0.2-0.6,0.6C32.5,20.7,32.5,21,32.5,21.4z M32.5,16.7
		c0,0.6,0,1.2,0,1.7c0,0.3,0.1,0.4,0.4,0.4c1.8,0.1,2.6-0.8,2.5-2.6c-0.1-1.5-1.2-2-2.5-1.8c-0.3,0-0.4,0.3-0.4,0.6
		C32.5,15.5,32.5,16.1,32.5,16.7z"/>
	<path class="st0" d="M41.7,24.9c-1.6,0-2.9-0.5-3.7-2c-0.7-1.4-0.7-2.8,0.3-4.1c1.1-1.5,2.8-1.9,4.5-1.5c1.6,0.3,2.6,1.3,3,2.9
		C46.4,22.7,44.5,24.9,41.7,24.9z M43.4,21c0-0.8,0-1.5-0.3-2.2c-0.2-0.6-0.7-0.9-1.3-0.9c-0.6,0-1,0.3-1.3,0.9
		c-0.2,0.5-0.2,1-0.3,1.5c-0.1,1-0.1,2,0.2,2.9c0.2,0.7,0.6,1,1.3,1c0.7,0,1.1-0.3,1.3-0.9C43.3,22.5,43.4,21.8,43.4,21z"/>
	<path class="st0" d="M55.8,20.8c0,0.4,0,0.8,0.1,1.2c0.2,0.8,0.4,1.5,1.3,1.8c0.9,0.3,1.6-0.1,2.3-0.7c0.2-0.1,0.3-0.4,0.6-0.1
		c0.2,0.2,0.3,0.4,0,0.6c-1.1,1.2-2.9,1.6-4.5,1c-1.4-0.5-2.2-1.8-2.2-3.5c0-2.5,2-4.2,4.5-4c0.7,0.1,1.3,0.1,1.9,0.6
		c0.5,0.4,0.7,0.8,0.5,1.4c-0.2,0.7-1.1,0.8-1.6,0.2c-0.2-0.2-0.3-0.5-0.4-0.8c-0.2-0.4-0.5-0.7-0.9-0.7c-0.5,0-0.8,0.3-1,0.7
		C55.8,19.2,55.8,20,55.8,20.8z"/>
	<path class="st0" d="M49.6,18.5c0.5-0.6,1-1,1.7-1.2c0.8-0.2,1.5,0.1,1.7,0.8c0.2,0.5,0,1-0.4,1.2c-0.4,0.3-0.9,0.2-1.3-0.2
		c-0.7-0.7-1.3-0.6-1.5,0.5c-0.2,1.3-0.1,2.6-0.1,3.9c0,0.5,0.4,0.5,0.7,0.5c0.2,0,0.4,0,0.4,0.4c0,0.4-0.3,0.3-0.5,0.3
		c-1.2-0.1-2.5-0.1-3.7,0c-0.2,0-0.4,0.1-0.5-0.3c0-0.3,0.1-0.4,0.4-0.5c0.5,0,0.7-0.3,0.7-0.8c0-1.3,0-2.5,0-3.8c0-0.5-0.2-1-0.8-1
		c-0.3,0-0.3-0.2-0.3-0.4c0-0.2,0.1-0.2,0.3-0.3c0.8-0.1,1.6-0.2,2.4-0.5c0.3-0.1,0.4-0.1,0.4,0.3C49.4,17.8,49.5,18.1,49.6,18.5z"
		/>
	<path class="st0" d="M79.3,20.4c0,0.9,0,1.8,0,2.7c0,0.5,0.1,0.8,0.7,0.8c0.3,0,0.4,0.2,0.4,0.5c0,0.3-0.3,0.3-0.5,0.2
		c-1.2-0.1-2.4-0.1-3.6,0c-0.2,0-0.4,0-0.4-0.3c0-0.3,0.1-0.4,0.3-0.4c0.7,0,0.7-0.4,0.7-1c0-1.2,0-2.4,0-3.6c0-0.6-0.1-1-0.8-1.1
		c-0.3,0-0.2-0.2-0.2-0.3c0-0.2,0.1-0.3,0.3-0.3c0.9-0.1,1.8-0.3,2.7-0.6c0.4-0.1,0.4,0,0.4,0.3C79.3,18.4,79.3,19.4,79.3,20.4z"/>
	<path class="st1" d="M17.3,18.1c0.1,0.1,0.3,0.1,0.4,0.2c1.6,0.7,3.1,1.4,4.7,2.1c0.2,0.1,0.5,0.2,0.4,0.4
		c-0.1,0.3-0.4,0.2-0.6,0.1c-1.6-0.7-3.3-1.4-4.9-2.1c-0.2-0.1-0.3-0.2-0.3-0.4C17,18.2,17.1,18.1,17.3,18.1z"/>
	<path class="st1" d="M11.2,18.4c0,0.2-0.1,0.3-0.3,0.3c-1.6,0.7-3.2,1.4-4.8,2.1c-0.1,0-0.2,0.1-0.3,0.1C5.6,21,5.5,21,5.4,20.8
		c-0.1-0.2,0.1-0.3,0.3-0.4c0.3-0.1,0.5-0.2,0.8-0.4c1.2-0.5,2.4-1.2,3.7-1.5c0.2,0,0.2-0.2,0.3-0.3c0.1-0.1,0.3-0.2,0.5-0.1
		C11.1,18.2,11.2,18.3,11.2,18.4z"/>
	<path class="st1" d="M10.9,25.1c-0.4-0.1-0.3-0.4-0.2-0.6c0.5-1.2,1-2.4,1.4-3.6c0.1-0.2,0.2-0.5,0.3-0.7c0.1-0.2,0.2-0.3,0.4-0.2
		c0.2,0.1,0.2,0.3,0.1,0.4c-0.3,0.8-0.7,1.6-1,2.5c-0.2,0.6-0.5,1.2-0.7,1.8C11.2,24.8,11.1,25,10.9,25.1z"/>
	<path class="st1" d="M17.5,24.7c0,0.2-0.1,0.3-0.2,0.3c-0.2,0-0.3-0.1-0.3-0.3c-0.4-0.9-0.7-1.8-1.1-2.8c-0.2-0.6-0.4-1.1-0.7-1.7
		c-0.1-0.2-0.1-0.3,0.1-0.4c0.2-0.1,0.3,0,0.4,0.2c0.6,1.5,1.2,3,1.8,4.5C17.5,24.6,17.5,24.7,17.5,24.7z"/>
	<path class="st1" d="M18.4,21.1c0,0.1,0,0.2-0.1,0.3c-0.1,0.1-0.3,0-0.3,0c-0.6-0.6-1.1-1.1-1.7-1.7c-0.1-0.1-0.1-0.3,0-0.4
		c0.1-0.1,0.3-0.1,0.4,0c0.6,0.6,1.1,1.1,1.7,1.7C18.4,21,18.4,21.1,18.4,21.1z"/>
	<path class="st1" d="M14.3,21.5c0,0.4,0,0.7,0,1.1c0,0.2,0,0.4-0.3,0.4c-0.3,0-0.3-0.2-0.3-0.4c0-0.7,0-1.4,0-2.1
		c0-0.2,0-0.4,0.2-0.4c0.3,0,0.3,0.2,0.3,0.4C14.3,20.9,14.3,21.2,14.3,21.5C14.3,21.5,14.3,21.5,14.3,21.5z"/>
	<path class="st1" d="M11.6,19.2c0.2,0.1,0.3,0.2,0.1,0.4c-0.5,0.6-1,1.1-1.5,1.7c-0.1,0.1-0.3,0.2-0.4,0c-0.1-0.1-0.1-0.3,0-0.4
		c0.5-0.6,1.1-1.1,1.7-1.7C11.5,19.2,11.6,19.2,11.6,19.2z"/>
	<path class="st1" d="M8.8,22.6c-0.2,0-0.4-0.1-0.3-0.2c0.1-0.4,0.4-0.6,0.7-0.7c0.2-0.1,0.3,0.1,0.3,0.2
		C9.4,22.2,9.1,22.4,8.8,22.6z"/>
	<path class="st1" d="M14.4,24.1c-0.2,0.1,0,0.6-0.3,0.6c-0.4,0-0.3-0.3-0.3-0.6c0-0.2-0.2-0.6,0.2-0.6C14.5,23.5,14.2,24,14.4,24.1
		z"/>
	<path class="st1" d="M20.6,23.3c0,0.2-0.2,0.3-0.3,0.3c-0.2,0-0.3-0.2-0.3-0.4c0-0.2,0.1-0.3,0.3-0.2
		C20.4,22.9,20.5,23.1,20.6,23.3z"/>
	<path class="st1" d="M19.5,22.2c0,0.2-0.1,0.3-0.2,0.3c-0.3-0.1-0.5-0.3-0.6-0.6c0-0.1,0.1-0.3,0.2-0.3
		C19.2,21.6,19.3,21.9,19.5,22.2z"/>
	<path class="st1" d="M14.1,26c-0.2,0-0.2-0.2-0.2-0.3c0-0.2,0.1-0.3,0.3-0.3c0.2,0,0.2,0.2,0.2,0.3C14.4,25.9,14.3,26,14.1,26z"/>
	<path class="st1" d="M8.2,23.2c0,0.2-0.1,0.3-0.4,0.3c-0.2,0-0.3-0.1-0.3-0.3c0-0.2,0.2-0.3,0.4-0.4C8.2,22.8,8.2,23,8.2,23.2z"/>
</g>
</svg>
