<?xml version="1.0" encoding="UTF-8"?>
<!-- Generator: Adobe Illustrator 28.0.0, SVG Export Plug-In . SVG Version: 6.00 Build 0)  -->
<svg xmlns="http://www.w3.org/2000/svg" xmlns:xlink="http://www.w3.org/1999/xlink" version="1.1" id="Layer_1" x="0px" y="0px" viewBox="0 0 107.6 38.7" style="enable-background:new 0 0 107.6 38.7;" xml:space="preserve">
<style type="text/css">
	.st0{display:none;}
	.st1{display:inline;}
	.st2{display:none;fill-rule:evenodd;clip-rule:evenodd;}
	.st3{clip-path:url(#SVGID_00000027604115539608148960000000808141568805441175_);}
	.st4{display:inline;fill-rule:evenodd;clip-rule:evenodd;}
	.st5{display:inline;fill:#FFFFFF;}
	.st6{fill:#FFFFFF;}
	.st7{fill-rule:evenodd;clip-rule:evenodd;}
</style>
<g id="grit.svg" class="st0">
	<path class="st1" d="M21.6,10c2.7-0.5,5.5,0.6,6.8,2.6c1.7,2.6,1.2,5.5-1.4,8.9c0.9,2.1,1.9,4.2,2.9,6.6c-1,0-1.7,0-2.4,0   c-1.3-2.4-1.7-4.1-3.1-5.8c-0.2,0.1-0.4,0.1-0.6,0.2c0,1.8,0,3.7,0,5.7c-0.9,0-1.4,0.1-2.2,0.1C21.6,22.1,21.6,16.1,21.6,10z    M23.9,12.5c0,2.5,0,4.9,0,7.3c2-0.3,2.8-1.4,2.8-3.5C26.8,14,26,12.8,23.9,12.5z"></path>
	<path class="st1" d="M51.9,28.1c0-6,0-11.9,0-17.9c1.9-0.6,4.8,0.6,6.4,2.6c2.4,3.1,2.7,8.2,0.6,11.7C57.4,27,54.5,28.6,51.9,28.1z    M54.3,25.4c2.6-0.9,3.8-3.6,3.5-7.5c-0.2-2.6-1.6-4.6-3.5-5C54.3,17.1,54.3,21.2,54.3,25.4z"></path>
	<path class="st1" d="M68.8,25.3c-1.4,0-2.6,0-3.9,0c-0.3,0.9-0.7,1.9-1,2.9c-0.7,0-1.4,0-2.4,0C63.3,22,64.9,16,66.6,10   c0.2,0,0.3,0,0.5,0c1.7,6,3.4,11.9,5.1,18.1c-0.9,0.1-1.6,0.1-2.3,0.2C69.5,27.2,69.2,26.3,68.8,25.3z M68.3,22.9   c-0.5-1.9-0.9-3.6-1.5-5.7c-0.5,2.1-1,3.8-1.4,5.7C66.5,22.9,67.2,22.9,68.3,22.9z"></path>
	<path class="st1" d="M17.9,28.3c-2.5,0.2-4.4-0.7-6-2.5c-3.1-3.5-3.1-10.6,0-14.1c1.7-1.9,4.1-2.4,6.1-1.1   c-0.2,0.5-0.5,1.1-0.7,1.5c-4-0.5-4.7,1.7-5.1,5.3c-0.3,2.4,0,4.7,1.5,6.7c0.4,0.5,1,1.1,2,1.7c0-2.4,0-4.2,0-6.2   c0.9,0,1.5,0,2.2,0C17.9,22.5,17.9,25.4,17.9,28.3z"></path>
	<path class="st1" d="M94.5,28.1c-1,0-1.7,0-2.6,0c1-6.4-2.1-12-3.5-18c0.9,0,1.6,0,2.4,0c0.8,2.6,1.5,5.2,2.3,7.7   c0.1,0,0.2,0,0.3,0c0.7-2.6,1.5-5.1,2.3-7.8c0.8,0,1.5,0,2.4,0C96.5,16.2,93.3,21.6,94.5,28.1z"></path>
	<path class="st1" d="M42.5,28.1c-0.9,0-1.5,0-2.3,0c0-5.2,0-10.7,0-15.9c-1-0.1-1.9,0-2.8-0.1c0-0.6,0-1.2,0-2c2.7,0,5.2,0,7.8,0   c0,0.7,0,1.2,0,1.9c-0.9,0.1-1.6,0-2.7,0.1C42.5,17.4,42.5,22.8,42.5,28.1z"></path>
	<path class="st1" d="M80.7,10.2c0.8,0,1.4,0,2.2,0c0,5.2,0,10.6,0,15.9c1.6,0.1,3,0,4.5,0.1c0,0.7,0,1.3,0,2c-2.2,0-4.4,0-6.7,0   C80.7,22.1,80.7,16.2,80.7,10.2z"></path>
	<path class="st1" d="M34.5,28.1c-0.8,0-1.3,0-2.1,0c0-6,0-11.9,0-18c0.7,0,1.4,0,2.1,0C34.5,16.2,34.5,22,34.5,28.1z"></path>
	<path class="st1" d="M76.6,28.1c-0.7,0-1.3,0-2.1,0c0-6,0-11.9,0-18c0.7,0,1.3,0,2.1,0C76.6,16.1,76.6,22,76.6,28.1z"></path>
</g>
<g id="business-insider.svg" class="st0">
	<path class="st1" d="M33,7.8c0.5,0,1,0,1.6,0c0,1.9,0,3.7,0,5.6c0,1.2-0.5,2.5-1.6,3.1c-1.3,0.6-2.8,0.6-4.1-0.1   c-1-0.6-1.5-1.9-1.5-3c0-1.9,0-3.7,0-5.6c0.5,0,1,0,1.5,0c0,1.6,0,3.2,0,4.8c0,0.7,0,1.6,0.5,2.2c0.6,0.8,1.9,0.9,2.7,0.4   c0.8-0.5,0.9-1.4,0.9-2.2C33,11.3,33,9.6,33,7.8z"></path>
	<path class="st1" d="M39.8,7.8c1.3-0.4,2.8-0.2,4,0.5c0,0.5,0,1.1,0,1.6c-1-0.7-2.3-1.3-3.5-0.8c-0.5,0.2-0.9,0.8-0.6,1.3   c0.2,0.5,0.8,0.6,1.2,0.8c1,0.4,2.1,0.6,2.8,1.4c0.9,1.1,0.7,3.1-0.7,3.8c-1.5,0.8-3.4,0.5-4.9-0.3c0-0.6,0-1.1,0-1.7   c1.1,0.8,2.6,1.3,4,0.8c0.7-0.3,0.8-1.4,0.2-1.8c-1-0.6-2.3-0.8-3.3-1.5c-0.9-0.6-1.1-1.9-0.8-2.8C38.4,8.5,39,8.1,39.8,7.8z"></path>
	<path class="st1" d="M53.9,7.7C56,9.6,58,11.5,60,13.5c0-1.9,0-3.8,0-5.7c0.5,0,1,0,1.5,0c0,3.1,0,6.1,0,9.2c-2.1-2-4.1-4-6.2-6   c0,1.9,0,3.8,0,5.8c-0.5,0-1,0-1.5,0C53.9,13.8,53.9,10.7,53.9,7.7z"></path>
	<path class="st1" d="M65.5,7.8c1.8,0,3.7,0,5.5,0c0,0.5,0,0.9,0,1.4c-1.3,0-2.6,0-3.9,0c0,0.7,0,1.4,0,2.1c1.2,0,2.3,0,3.5,0   c0,0.5,0,0.9,0,1.4c-1.2,0-2.3,0-3.5,0c0,0.9,0,1.8,0,2.7c1.3,0,2.6,0,3.9,0c0,0.5,0,1,0,1.4c-1.8,0-3.7,0-5.5,0   C65.5,13.8,65.5,10.8,65.5,7.8z"></path>
	<path class="st1" d="M75.5,8.2c1.4-0.8,3.2-0.6,4.6,0.2c0,0.6,0,1.1,0,1.7c-1-0.8-2.4-1.3-3.6-0.8c-0.7,0.3-0.8,1.3-0.1,1.7   c1,0.6,2.3,0.7,3.3,1.5c1.3,1,1.2,3.4-0.3,4.1c-1.5,0.8-3.4,0.6-4.9-0.3c0-0.6,0-1.1,0-1.7c1.1,0.8,2.4,1.3,3.7,0.9   c0.5-0.1,0.9-0.6,0.9-1.1c0-0.4-0.3-0.8-0.6-0.9c-1-0.5-2.2-0.7-3.2-1.4C74,11.1,74.1,8.9,75.5,8.2z"></path>
	<path class="st1" d="M84.6,8.2c1.4-0.9,3.3-0.6,4.7,0.2c0,0.6,0,1.1,0,1.7c-1-0.8-2.4-1.3-3.6-0.8c-0.7,0.3-0.8,1.3-0.1,1.7   c1.1,0.6,2.4,0.7,3.4,1.5c0.8,0.7,1,1.9,0.7,2.9c-0.3,0.9-1.2,1.4-2,1.6c-1.3,0.3-2.7,0-3.9-0.6c0-0.6,0-1.1,0-1.7   c1.1,0.8,2.6,1.3,4,0.8c0.7-0.3,0.8-1.4,0.2-1.8c-1.1-0.7-2.4-0.8-3.4-1.5C83.2,11.1,83.3,9,84.6,8.2z"></path>
	<path class="st1" d="M17.6,7.8c1.6,0.1,3.2-0.2,4.8,0.3c1.7,0.5,2,3.2,0.4,4.1c1.4,0.6,1.7,2.6,0.8,3.7c-0.6,0.7-1.6,0.9-2.5,0.9   c-1.2,0-2.3,0-3.5,0C17.6,13.8,17.6,10.8,17.6,7.8 M19.1,9.2c0,0.8,0,1.6,0,2.4c0.8,0,1.7,0.1,2.5-0.1c1-0.3,1-1.9,0-2.2   C20.8,9.1,19.9,9.2,19.1,9.2 M19.1,12.9c0,0.9,0,1.7,0,2.6c0.9-0.1,1.9,0.2,2.8-0.2c0.9-0.4,0.8-1.9-0.1-2.2   C20.9,12.8,20,13,19.1,12.9z"></path>
	<path class="st1" d="M48,7.8c0.5,0,1,0,1.5,0c0,3,0,6,0,9c-0.5,0-1,0-1.5,0C48,13.8,48,10.8,48,7.8z"></path>
	<path class="st1" d="M41.8,21.8c1.4-0.9,3.3-0.6,4.7,0.2c0,0.5,0,1.1,0,1.6c-1-0.8-2.4-1.3-3.7-0.8c-0.6,0.3-0.7,1.2-0.1,1.6   c1.1,0.7,2.6,0.7,3.6,1.7c0.6,0.6,0.8,1.6,0.6,2.4c-0.2,0.8-0.9,1.5-1.7,1.7c-1.4,0.4-3,0.2-4.3-0.5c0-0.6,0-1.1,0-1.7   c1.1,0.8,2.5,1.3,3.8,0.9c0.8-0.2,1-1.4,0.2-1.8c-1.1-0.7-2.4-0.7-3.4-1.6C40.5,24.6,40.5,22.6,41.8,21.8z"></path>
	<path class="st1" d="M23.6,21.4c0.5,0,1,0,1.5,0c0,3,0,6,0,8.9c-0.5,0-1,0-1.5,0C23.6,27.4,23.6,24.4,23.6,21.4z"></path>
	<path class="st1" d="M29.5,21.2c2,1.9,4,3.9,6.1,5.8c0-1.9,0-3.7,0-5.6c0.5,0,1,0,1.5,0c0,3,0,6.1,0,9.1c-2.1-2-4.1-4-6.1-5.9   c0,1.9,0,3.8,0,5.8c-0.5,0-1,0-1.5,0C29.5,27.3,29.5,24.3,29.5,21.2z"></path>
	<path class="st1" d="M50.8,21.4c0.5,0,1,0,1.5,0c0,3,0,6,0,8.9c-0.5,0-1,0-1.5,0C50.8,27.4,50.8,24.4,50.8,21.4z"></path>
	<path class="st1" d="M56.7,21.4c1.2,0,2.4,0,3.7,0c1.4,0,2.8,0.7,3.5,1.9c0.7,1.3,0.8,2.9,0.3,4.3c-0.5,1.5-1.9,2.5-3.5,2.6   c-1.3,0.1-2.7,0-4,0C56.7,27.4,56.7,24.4,56.7,21.4 M58.3,22.8c0,2.1,0,4.1,0,6.2c1.1,0,2.3,0.2,3.3-0.3c1-0.5,1.4-1.6,1.4-2.7   c0-1.1-0.3-2.2-1.3-2.8C60.6,22.6,59.4,22.9,58.3,22.8z"></path>
	<path class="st1" d="M67.6,21.4c1.8,0,3.6,0,5.5,0c0,0.5,0,0.9,0,1.4c-1.3,0-2.6,0-3.9,0c0,0.7,0,1.4,0,2.1c1.2,0,2.3,0,3.5,0   c0,0.4,0,0.9,0,1.3c-1.2,0-2.3,0-3.5,0c0,0.9,0,1.8,0,2.8c1.3,0,2.6,0,3.9,0c0,0.5,0,0.9,0,1.4c-1.8,0-3.6,0-5.5,0   C67.6,27.4,67.6,24.4,67.6,21.4z"></path>
	<path class="st1" d="M77.6,21.4c1.2,0,2.5,0,3.7,0c1,0,2.2,0.6,2.5,1.7c0.3,0.9,0.2,2-0.4,2.8c-0.4,0.5-0.9,0.6-1.5,0.8   c1.1,1.2,2.1,2.4,3.2,3.6c-0.6,0-1.2,0-1.8,0c-1-1.2-2.1-2.4-3.1-3.6c-0.3,0-0.7,0-1,0c0,1.2,0,2.4,0,3.6c-0.5,0-1,0-1.6,0   C77.6,27.4,77.6,24.4,77.6,21.4 M79.1,22.8c0,0.9,0,1.8,0,2.7c0.8,0,1.7,0.1,2.4-0.1c1-0.4,1-1.9,0-2.4   C80.8,22.6,80,22.8,79.1,22.8z"></path>
</g>
<path id="entrepreneur.svg" class="st2" d="M14.3,9.7L14,13h-1.6L12.3,11H9.7v5h1.1c0.1-0.4,0.1-0.7,0.3-1.1h1.2v3.4h-1.1  c-0.1-0.4-0.2-0.7-0.3-1.1H9.7v5.3h2.6l0.2-2.3l1.8,0.1l0.1,3.5H5.9v-1.2l1.2-0.2V11.1C6.6,11,6.2,11,5.7,10.9V9.7H14.3L14.3,9.7z   M44.5,28.4c0-0.4,0.1-0.7,0.1-1l0.9-0.2V15.3c-0.4-0.1-0.7-0.1-1-0.1v-1l2.8-0.4c0.1,0.4,0.2,0.7,0.3,1c0.1,0,0.1-0.1,0.1-0.1  c0.7-0.8,1.6-1,2.6-1c1.3,0.1,2,1,2.3,2.1c0.1,0.5,0.3,1,0.3,1.6c0.1,1.1,0.1,2.2-0.1,3.3c-0.1,0.4-0.2,0.8-0.4,1.2  c-0.5,1.1-1.4,1.8-2.6,1.9c-0.7,0.1-1.3,0-1.9-0.3h-0.1v3.7c0.3,0.1,0.6,0.2,1,0.2c0,0.3-0.1,0.6-0.1,1L44.5,28.4L44.5,28.4z   M47.9,22.2c0.7,0.3,1.5,0.4,2.2,0.1c0.1-0.1,0.2-0.2,0.3-0.3c0.1-0.4,0.2-0.7,0.2-1.1c0.1-1.1,0.1-2.3,0.1-3.4  c0-0.4-0.1-0.8-0.2-1.2c-0.2-0.8-0.8-1.1-1.6-1h-0.1c-0.5,0.1-0.8,0.4-0.8,1L47.9,22.2L47.9,22.2z M76.2,22.4l1,0.2  c0,0.4,0,0.7-0.1,1h-3.3V17c0-0.3-0.1-0.6-0.1-0.9c-0.1-0.4-0.4-0.5-0.7-0.6c-0.4-0.1-0.7-0.1-1,0.1c-0.3,0.1-0.5,0.3-0.5,0.7v6.2  l1,0.2c0,0.3-0.1,0.7-0.1,1h-4.2v-1l1-0.2v-7.1c-0.4-0.1-0.7-0.1-1-0.1v-1l2.8-0.4l0.2,0.9c0.2-0.1,0.4-0.4,0.7-0.5  c0.9-0.6,1.9-0.7,2.9-0.3c0.8,0.3,1.3,1,1.4,1.9c0.1,0.2,0.1,0.5,0.1,0.7V22C76.2,22.2,76.2,22.3,76.2,22.4L76.2,22.4z M18.5,22.5  l1,0.2c0,0.4-0.1,0.7-0.1,1h-4.2c0-0.3,0-0.7,0.1-1l0.9-0.2c0.1-0.2,0.1-6.7,0-7.1c-0.3-0.1-0.7-0.1-1-0.1v-1  c0.9-0.1,1.8-0.2,2.8-0.4l0.2,0.9l0.2-0.2c0.9-0.7,1.9-1,3.1-0.7c1,0.2,1.5,0.9,1.7,1.9c0.1,0.2,0.1,0.5,0.1,0.7v6  c0.4,0.1,0.7,0.1,1,0.2v1h-3.3v-6.5c0-0.2,0-0.5-0.1-0.7c-0.1-0.6-0.4-0.9-1-1c-0.4-0.1-0.8,0-1.1,0.4c-0.1,0.1-0.1,0.3-0.1,0.5  L18.5,22.5L18.5,22.5z M91.2,15.1c-0.4,0-0.7-0.1-1-0.1v-0.9l3.2-0.4c0.1,0.4,0.3,0.7,0.3,1.2v7.5c0.3,0.1,0.6,0.1,1,0.2  c0,0.4-0.1,0.7-0.1,1h-2.8c-0.1-0.2-0.1-0.5-0.2-0.8c-0.1,0.1-0.1,0.1-0.2,0.1c-1.1,1-2.6,0.9-3.6,0.4c-0.7-0.4-1.1-1-1.3-1.8  c-0.1-0.3-0.1-0.5-0.1-0.8v-5.7c-0.4-0.1-0.7-0.1-1-0.1v-0.9l3.1-0.4c0.1,0.4,0.2,0.7,0.2,1v5.7c0,0.2,0,0.5,0.1,0.7  c0.1,0.7,0.5,1.1,1.2,1.1c0.2,0,0.5-0.1,0.7-0.1c0.2-0.1,0.6-0.5,0.6-0.7v-6.2C91.2,15.3,91.2,15.2,91.2,15.1L91.2,15.1z M39.2,19.4  c0,0.8,0.1,1.5,0.5,2.2c0.4,0.5,0.9,0.8,1.6,0.9c0.7,0,1.3-0.1,1.9-0.4c0.1,0,0.1-0.1,0.3-0.1c0.1,0.3,0.2,0.6,0.4,0.9  c-0.1,0.1-0.4,0.2-0.5,0.4c-1.2,0.7-2.5,0.9-3.7,0.4c-1.1-0.3-1.8-1-2.3-2.1c-0.5-1.1-0.7-2.3-0.5-3.5c0.1-0.7,0.2-1.5,0.5-2.2  c0.5-1.1,1.3-1.9,2.5-2.1c1.2-0.2,2.2-0.1,3.1,0.7c0.5,0.5,0.8,1.2,1,1.9c0.2,0.7,0.3,1.4,0.3,2.2c0,0.2-0.1,0.4-0.2,0.7L39.2,19.4  L39.2,19.4z M42.1,18.1c0-0.3-0.1-0.5-0.1-0.7c-0.1-0.6-0.1-1.1-0.4-1.6c-0.3-0.6-0.8-0.7-1.4-0.5c-0.2,0.1-0.4,0.2-0.5,0.4  c-0.3,0.8-0.4,1.6-0.5,2.5v0.2L42.1,18.1L42.1,18.1z M84.8,19.4c-1.6,0-3.2,0.1-4.8,0.1c-0.1,0.4,0,0.7,0.1,1c0.1,0.5,0.3,1,0.6,1.3  c0.4,0.4,0.8,0.7,1.4,0.7c0.6,0,1.2-0.1,1.8-0.3c0.1-0.1,0.2-0.1,0.4-0.1c0.1,0.3,0.2,0.6,0.4,0.9c-0.1,0-0.1,0.1-0.1,0.1  c-1,0.7-2.2,1-3.4,0.9c-1.5-0.1-2.5-1-3.1-2.5c-0.7-1.8-0.7-3.6,0.1-5.4c0.4-1.1,1.3-1.9,2.5-2.2c1-0.2,1.9-0.1,2.8,0.4  c0.6,0.4,1,1,1.3,1.6c0.3,0.8,0.4,1.8,0.4,2.7C85,18.8,84.9,19.1,84.8,19.4L84.8,19.4z M83,18.1c0-0.7-0.1-1.3-0.3-1.9  c-0.1-0.3-0.2-0.6-0.4-0.8c-0.4-0.5-1.6-0.4-1.7,0.3c-0.1,0.5-0.3,1-0.4,1.6C80,17.7,80,18,80,18.3L83,18.1L83,18.1z M67.7,19.4  c-1.6,0-3.2,0.1-4.8,0.1c0,0.9,0.1,1.6,0.7,2.3c0.4,0.4,0.8,0.7,1.3,0.7c0.6,0,1.3-0.1,1.8-0.3c0.1-0.1,0.2-0.1,0.4-0.1  c0.1,0.3,0.2,0.6,0.4,0.9c-0.1,0.1-0.2,0.1-0.3,0.2c-1.1,0.7-2.3,0.9-3.6,0.7c-1.2-0.2-2-1-2.5-2c-0.5-1.1-0.7-2.2-0.6-3.4  c0.1-0.8,0.2-1.6,0.5-2.3c0.4-0.9,1-1.6,1.9-1.9c1-0.4,2.1-0.4,3.1,0.1c0.7,0.4,1.1,1,1.4,1.6c0.4,0.9,0.5,1.9,0.5,2.8  C67.9,18.9,67.8,19.1,67.7,19.4L67.7,19.4z M65.8,18.1c0-0.3-0.1-0.6-0.1-0.9c-0.1-0.5-0.1-1-0.4-1.5c-0.4-0.6-0.9-0.8-1.5-0.5  c-0.1,0.1-0.3,0.1-0.4,0.4c-0.3,0.6-0.4,1.3-0.5,1.9c0,0.2-0.1,0.4-0.1,0.7C63.8,18.3,64.8,18.2,65.8,18.1L65.8,18.1z M32.9,13.9  l0.2,0.9c0.1-0.1,0.2-0.1,0.4-0.2c0.7-0.4,1.4-0.6,2.2-0.7c0.4-0.1,0.7,0.1,0.9,0.4l-0.3,2.6c-0.5,0-1-0.1-1.6-0.1  c-0.1-0.4-0.1-0.9-0.1-1.4c-0.4,0-0.7,0.1-1,0.4v6.7l1,0.2c0,0.3,0,0.7-0.1,1h-4.2v-1l0.9-0.2v-7.1c-0.4-0.1-0.7-0.1-1-0.1v-1  C31,14.2,31.9,14,32.9,13.9L32.9,13.9z M95.1,23.7c0-0.4,0-0.7,0.1-1l0.9-0.2v-7.1c-0.3-0.1-0.7-0.1-1-0.1v-1l2.8-0.4l0.2,0.8  l1.2-0.5c0.4-0.1,0.8-0.2,1.3-0.3c0.4-0.1,0.7,0,0.9,0.4l-0.3,2.6c-0.5,0-1-0.1-1.6-0.1c-0.1-0.4-0.1-1-0.1-1.4l-1,0.4v6.8  c0.3,0.1,0.6,0.2,1,0.2c0,0.3-0.1,0.7-0.1,1L95.1,23.7L95.1,23.7z M58.1,15.3l-1,0.4v6.8l1,0.2c0,0.4-0.1,0.7-0.1,1h-4.2v-1l0.9-0.2  v-7.1c-0.4-0.1-0.7-0.1-1-0.1v-1l2.8-0.4l0.2,0.8l0.8-0.4c0.5-0.2,1.1-0.4,1.6-0.4c0.4,0,0.7,0.1,1,0.4l-0.3,2.6  c-0.5,0-1-0.1-1.6-0.1L58.1,15.3L58.1,15.3z M27.5,12v2h1.7c-0.1,0.4-0.1,0.8-0.1,1.3c-0.5,0-1,0.1-1.6,0.1v6.3  c0.1,0.4,0.3,0.7,0.7,0.7h1c0,0.4,0.1,0.7,0.1,1c-0.2,0.1-0.5,0.2-0.8,0.3c-0.6,0.1-1.2,0.1-1.8,0.1c-0.9-0.1-1.5-0.7-1.6-1.7v-6.7  c-0.4-0.1-0.7-0.1-1.1-0.1c0-0.4,0-0.8,0.1-1.2c0.4,0,0.8-0.1,1.3-0.1l0.5-1.9L27.5,12L27.5,12z"></path>
<g id="infoq.svg" class="st0">
	<path class="st1" d="M92.8,21.9h-0.6c0.4,0.3,0.7,0.7,0.7,1.1c0,0.2-0.1,0.5-0.3,0.7c-0.2,0.2-0.4,0.3-0.7,0.2h-2.3v-0.6h2.1   c0.2,0,0.4,0,0.5-0.1c0.1-0.1,0.2-0.2,0.2-0.3c0-0.4-0.2-0.7-0.7-1h-2.1v-0.6h3.2V21.9z"></path>
	<path class="st1" d="M92.7,18.1c0.1,0.3,0.2,0.7,0.2,1c0,0.4-0.2,0.8-0.5,1.1c-0.3,0.3-0.8,0.5-1.2,0.4c-0.4,0-0.8-0.1-1.2-0.4   c-0.3-0.2-0.5-0.6-0.5-1c0-0.3,0.1-0.7,0.4-0.9c0.3-0.2,0.8-0.3,1.2-0.3l0.2,0v2c0.8-0.1,1.1-0.5,1.1-1.1c0-0.3-0.1-0.6-0.2-0.9   L92.7,18.1z M90.9,20.1v-1.4c-0.6,0-0.9,0.2-0.9,0.7C90,19.8,90.3,20.1,90.9,20.1z"></path>
	<path class="st1" d="M92.8,15.5h-0.6c0.4,0.3,0.7,0.7,0.7,1.1c0,0.2-0.1,0.5-0.3,0.7c-0.2,0.2-0.4,0.3-0.7,0.2h-2.3v-0.6h2.1   c0.2,0,0.4,0,0.5-0.1c0.1-0.1,0.2-0.2,0.2-0.3c0-0.4-0.2-0.7-0.7-1h-2.1v-0.6h3.2V15.5z"></path>
	<path class="st1" d="M92.7,11.7c0.1,0.3,0.2,0.7,0.2,1c0,0.4-0.2,0.8-0.5,1.1c-0.3,0.3-0.8,0.5-1.2,0.4c-0.4,0-0.8-0.1-1.2-0.4   c-0.3-0.2-0.5-0.6-0.5-1c0-0.3,0.1-0.7,0.4-0.9c0.3-0.2,0.8-0.3,1.2-0.3l0.2,0v2c0.8-0.1,1.1-0.5,1.1-1.1c0-0.3-0.1-0.6-0.2-0.9   L92.7,11.7z M90.9,13.7v-1.4c-0.6,0-0.9,0.2-0.9,0.7C90,13.4,90.3,13.6,90.9,13.7z"></path>
	<path class="st1" d="M19.4,28.4h-5.1V7.6h5.1V28.4z"></path>
	<path class="st1" d="M22.7,28.4V12.9h4.7v1.4c0.6-0.6,1.3-1,2-1.4c0.8-0.3,1.7-0.5,2.6-0.4c1.7,0,2.9,0.5,3.8,1.6   c0.8,1.1,1.2,2.7,1.2,4.9v9.3h-4.7v-9.1c0-1-0.2-1.8-0.6-2.3c-0.4-0.5-1-0.7-1.7-0.7c-0.9,0-1.6,0.2-2,0.7   c-0.4,0.5-0.6,1.2-0.6,2.4v9.1H22.7z"></path>
	<path class="st1" d="M40.4,28.4V16.1H38v-2.8h2.4c0-0.3,0-0.5-0.1-0.7c0-0.1,0-0.3,0-0.4c0-1.6,0.4-2.8,1.2-3.5   c0.8-0.7,2.1-1.1,3.9-1.1c0.4,0,0.8,0,1.2,0.1c0.4,0.1,0.9,0.1,1.3,0.2v3.2h-0.8c-0.9,0-1.4,0.1-1.7,0.3c-0.3,0.2-0.4,0.6-0.4,1.3   v0.6H48v2.8h-2.9v12.3L40.4,28.4z"></path>
	<path class="st1" d="M56.5,28.9c-2.5,0-4.5-0.8-6.1-2.3c-1.5-1.5-2.3-3.5-2.3-6c0-2.5,0.8-4.5,2.3-6c1.5-1.5,3.6-2.3,6-2.3   c2.5,0,4.6,0.8,6.1,2.3c1.5,1.5,2.3,3.5,2.3,6c0,2.5-0.8,4.5-2.3,6C61,28.1,59,28.9,56.5,28.9z M52.9,20.7c0,1.4,0.3,2.5,1,3.4   c1.2,1.4,3.2,1.7,4.7,0.5c0.2-0.2,0.4-0.3,0.5-0.5c0.7-0.8,1-2,1-3.4c0-1.4-0.3-2.5-1-3.4c-1.1-1.4-3.2-1.7-4.7-0.5   c-0.2,0.2-0.4,0.3-0.5,0.5C53.2,18.2,52.9,19.3,52.9,20.7z"></path>
	<path class="st1" d="M82.8,27.6c-0.8,0.4-1.7,0.8-2.6,1c-1,0.2-2,0.3-3,0.3c-3.2,0-5.8-1-7.7-3c-1.9-2-2.9-4.6-2.9-7.9   c0-1.7,0.3-3.3,0.9-4.8c1.1-2.6,3.2-4.6,5.8-5.5c1.3-0.4,2.6-0.6,3.9-0.6c3.2,0,5.8,1,7.7,3c1.9,2,2.9,4.6,2.9,7.9   c0,1.3-0.1,2.5-0.5,3.7c-0.3,1.1-0.8,2.1-1.5,3c0.6,0.5,1.3,0.9,2,1.3c0.7,0.3,1.5,0.5,2.3,0.6l-1.6,3.7c-1.1-0.1-2.2-0.4-3.2-0.9   C84.4,29,83.5,28.4,82.8,27.6z M77.3,24.5c1.7,0,3-0.6,3.9-1.7c0.9-1.1,1.4-2.7,1.4-4.8c0-2.1-0.5-3.7-1.4-4.8   c-0.9-1.2-2.2-1.7-3.9-1.7c-1.6,0-2.9,0.6-3.9,1.7C72.5,14.4,72,16,72,18c0,2,0.5,3.6,1.4,4.8C74.3,24,75.6,24.5,77.3,24.5z"></path>
	<path class="st1" d="M85.9,24.8c0.7-0.9,1.2-1.9,1.5-3c0.2-0.6,0.3-1.1,0.3-1.7c-1.8,0.1-3.6,0.2-5.4,0.3c-0.2,0.9-0.6,1.8-1.1,2.5   c-0.9,1.1-2.2,1.7-3.9,1.7c-1.6,0-2.9-0.6-3.9-1.7c-0.5-0.6-0.8-1.3-1-2c-1.8,0.1-3.6,0.1-5.4,0.2c0.4,1.9,1.3,3.6,2.6,5   c1.9,2,4.5,3,7.7,3c1,0,2-0.1,3-0.3c0.9-0.2,1.8-0.5,2.6-1c0.7,0.8,1.6,1.4,2.5,1.9c1,0.5,2.1,0.8,3.2,0.9l1.6-3.7   c-0.8-0.1-1.6-0.3-2.3-0.6C87.1,25.7,86.5,25.3,85.9,24.8z"></path>
	<path class="st1" d="M59.1,24c-1.1,1.4-3.2,1.7-4.7,0.5c-0.2-0.2-0.4-0.3-0.5-0.5c-0.5-0.7-0.9-1.6-0.9-2.7c-1.6,0-3.2,0-4.8,0   c0.1,2.2,0.9,3.9,2.3,5.3c1.5,1.5,3.5,2.3,6.1,2.3c2.5,0,4.5-0.8,6.1-2.3c1.5-1.4,2.2-3.3,2.3-5.6c-1.6,0-3.2,0.1-4.8,0.1   C60,22.3,59.6,23.3,59.1,24z"></path>
	<path class="st1" d="M40.4,28.4h4.7v-7.1c-1.6,0-3.1,0-4.7,0V28.4z"></path>
	<path class="st1" d="M22.7,28.4h4.7v-7.5c-1.5-0.1-3.1-0.1-4.7-0.2L22.7,28.4z"></path>
	<path class="st1" d="M32.3,28.4H37v-7.2c-1.5,0-3.1-0.1-4.7-0.1V28.4z"></path>
	<path class="st1" d="M14.3,28.4h5.1v-7.9c-1.7-0.1-3.4-0.2-5.1-0.3L14.3,28.4z"></path>
</g>
<g id="wsj.svg" transform="translate(-67.092411,-701.4412)" class="st0">
	<path id="path13406" class="st1" d="M168.9,723.5c-0.3,0-0.5,0.2-0.5,0.6c0,0.3,0.2,0.6,0.5,0.6c0.3,0,0.5-0.2,0.5-0.6   C169.5,723.7,169.2,723.5,168.9,723.5 M150.1,724.5h2.4v-0.2l-0.3-0.1c-0.2-0.1-0.3-0.2-0.3-0.5v-3.2h0.6c0.3,0,0.5,0.1,0.5,0.8   l0.1,1.5c0,1.4,0.4,1.7,1.1,1.7c0.7,0,0.8-0.5,0.8-1.1v-0.3h-0.2v0.2c0,0.4-0.1,0.7-0.2,0.7c-0.2,0-0.2-0.1-0.2-0.7l-0.1-1   c-0.1-1.4-0.3-1.9-1.3-2.1c1-0.3,1.6-1,1.6-2c0-1.3-1.1-2-2.1-2h-4v0.2l0.2,0c0.4,0.1,0.4,0.3,0.4,1.3v4.7c0,1.1-0.3,1.6-1,1.6   c-0.6,0-0.9-0.3-0.9-1.4v-5.6c0-0.3,0.1-0.4,0.4-0.5l0.3-0.1v-0.2h-2.5v0.2l0.3,0.1c0.2,0.1,0.3,0.2,0.3,0.5v5.5   c0,1.2,0.7,1.9,1.8,1.9c1.1,0,1.6-0.7,1.6-2v-5.1c0-0.6,0.1-0.9,0.6-0.9c0.4,0,0.6,0.1,0.6,0.5v6.6c0,0.3-0.1,0.4-0.3,0.5l-0.3,0.1   L150.1,724.5L150.1,724.5z M166,717.2c0-0.3,0.1-0.4,0.3-0.5l0.3-0.1v-0.2h-2.5v0.2l0.3,0.1c0.2,0.1,0.3,0.2,0.3,0.5v6.6   c0,0.3-0.1,0.5-0.5,0.5c-0.4,0-0.5-0.1-0.6-0.8l-1.5-7.1h-0.5l-1.4,6.8c-0.2,0.8-0.2,0.9-0.6,1l-0.2,0.1v0.2h1.7v-0.2l-0.2,0   c-0.4-0.1-0.4-0.3-0.3-1.2l0.8-4.4l0.9,4.6c0.1,0.7,0.1,0.8-0.4,0.9l-0.2,0v0.2h6.3v-2.7h-0.2c-0.1,1.2-0.4,2.4-1.4,2.4H166   L166,717.2L166,717.2z M162.3,722.3V722h-1.6l0,0.3H162.3z M155.7,717.3v5.6c0,0.8,0,1.3-0.4,1.3l-0.2,0v0.2h1.7v-0.2   c-0.8-0.1-0.8-0.4-0.8-1.3v-5.4L155.7,717.3l3,7.2h0.5V718c0-1,0-1.2,0.5-1.3l0.2,0v-0.2H158v0.2l0.2,0c0.6,0.1,0.6,0.3,0.6,1.2   v4.1l0.1,0l-2.2-5.6h-1.7v0.2l0.2,0C155.4,716.7,155.5,716.9,155.7,717.3 M151.9,716.7h0.5c0.5,0,0.9,0.3,0.9,1.8   c0,1.6-0.3,1.7-1,1.7h-0.4V716.7z M144.1,720.4c0,3.4-0.3,3.9-0.9,3.9c-0.6,0-0.9-0.5-0.9-3.9c0-3.3,0.3-3.8,0.9-3.8   C143.8,716.7,144.1,717.1,144.1,720.4 M145.4,720.5c0-2.3-0.7-4.1-2.2-4.1c-1.5,0-2.2,1.9-2.2,4.1c0,2.3,0.7,4.1,2.2,4.1   C144.7,724.6,145.4,722.7,145.4,720.5 M140.3,717.2c0-0.3,0.1-0.4,0.3-0.5l0.3-0.1v-0.2h-2.4v0.2l0.3,0.1c0.2,0.1,0.4,0.1,0.4,0.5   v5.7c0,0.8-0.1,1.4-0.7,1.4c-0.4,0-0.7-0.3-0.6-0.5c0-0.4,0.6-0.3,0.7-0.9c0-0.4-0.2-0.6-0.5-0.6c-0.4,0-0.8,0.3-0.8,0.9   c0,0.8,0.5,1.5,1.4,1.5c1,0,1.7-0.7,1.7-1.9V717.2L140.3,717.2z M100.9,717.2c0-0.3,0.1-0.4,0.3-0.5l0.3-0.1v-0.2h-2.5v0.2l0.3,0.1   c0.2,0.1,0.3,0.2,0.3,0.5v6.6c0,0.3-0.1,0.5-0.5,0.5c-0.4,0-0.5-0.1-0.6-0.8l-1.5-7.1h-0.5l-1.4,6.8c-0.2,0.8-0.2,0.9-0.6,1   l-0.2,0.1v0.2H96v-0.2l-0.2,0c-0.4-0.1-0.4-0.3-0.3-1.2l0.8-4.4l0.9,4.7c0.1,0.7,0.1,0.8-0.4,0.9l-0.2,0v0.2h6.3v-2.7h-0.2   c-0.1,1.2-0.4,2.4-1.4,2.4h-0.5V717.2z M133.7,716.7h0.3c0.7,0,1,1.2,1.1,2.4h0.2v-2.7H131v2.7h0.2c0.1-1.2,0.3-2.4,1.1-2.4h0.3   v7.1c0,0.3-0.1,0.4-0.3,0.5l-0.3,0.1v0.2h2.5v-0.2l-0.4-0.1c-0.2-0.1-0.3-0.1-0.3-0.5L133.7,716.7L133.7,716.7z M128.3,720.4l0.4,0   c0.5,0,0.7,0.2,0.8,1.5h0.2v-3.3h-0.2c-0.1,1-0.3,1.5-0.8,1.5l-0.4,0v-3.5h0.8c0.9,0,1.1,1.1,1.2,2.4h0.2v-2.7h-4.1v0.2l0.3,0.1   c0.3,0.1,0.3,0.2,0.3,0.5v6.5c0,0.3-0.1,0.4-0.3,0.5l-0.3,0.1v0.2h4.2v-2.7h-0.2c-0.1,1.2-0.3,2.4-1.4,2.4h-0.8L128.3,720.4   L128.3,720.4z M123.9,720.4l0.4,0c0.5,0,0.7,0.2,0.8,1.5h0.2v-3.3h-0.2c-0.1,1-0.3,1.5-0.8,1.5l-0.4,0v-3.5h0.8   c0.9,0,1.1,1.2,1.2,2.4h0.2v-2.7H122v0.2l0.4,0.1c0.3,0.1,0.3,0.2,0.3,0.5v6.5c0,0.3-0.1,0.4-0.3,0.5l-0.3,0.1v0.2h4.2v-2.7h-0.2   c-0.1,1.2-0.3,2.4-1.4,2.4h-0.8V720.4L123.9,720.4z M119,716.7h0.4c0.5,0,0.9,0.3,0.9,1.8c0,1.5-0.3,1.7-1,1.7H119V716.7z    M117.3,724.5h2.4v-0.2l-0.3-0.1c-0.2-0.1-0.3-0.2-0.3-0.5v-3.2h0.4c0.3,0,0.5,0.1,0.5,0.8l0.1,1.5c0,1.4,0.4,1.7,1.1,1.7   c0.7,0,0.8-0.5,0.8-1.1v-0.3h-0.2v0.2c0,0.4-0.1,0.7-0.2,0.7c-0.2,0-0.2-0.1-0.2-0.7l-0.1-1c-0.1-1.4-0.3-1.9-1.3-2.1   c1-0.3,1.6-1,1.6-2c0-1.3-1.1-2-2.1-2h-2.3v0.2l0.3,0.1c0.2,0.1,0.3,0.2,0.3,0.5v6.6c0,0.3-0.1,0.4-0.3,0.5l-0.3,0.1L117.3,724.5   L117.3,724.5z M115.5,716.7h0.3c0.7,0,1,1.2,1.1,2.4h0.2v-2.7h-4.3v2.7h0.2c0.1-1.2,0.3-2.4,1.1-2.4h0.3v7.1c0,0.3-0.1,0.4-0.3,0.5   l-0.3,0.1v0.2h2.5v-0.2l-0.3-0.1c-0.3-0.1-0.3-0.3-0.3-0.5V716.7z M112.7,722.4c0-2.4-2.7-3.1-2.7-4.8c0-0.4,0.1-0.9,0.7-0.9   c0.8,0,1.2,1.1,1.3,2.4h0.2v-2.7h-0.1c-0.1,0.3-0.2,0.4-0.3,0.4c-0.3,0-0.4-0.4-1.1-0.4c-1,0-1.7,0.8-1.7,1.9c0,2,2.7,2.8,2.7,4.7   c0,0.8-0.4,1.3-0.9,1.3c-0.8,0-1.3-0.9-1.5-2.4h-0.2v2.7h0.1c0.1-0.4,0.3-0.4,0.4-0.4c0.2,0,0.5,0.5,1.1,0.5   C111.9,724.6,112.7,723.7,112.7,722.4 M105,717.2c0-0.3,0.1-0.4,0.3-0.5l0.3-0.1v-0.2h-2.5v0.2l0.3,0.1c0.2,0.1,0.3,0.2,0.3,0.5   v6.6c0,0.3-0.1,0.4-0.3,0.5l-0.3,0.1v0.2h3.9v-2.7h-0.2c-0.1,1.2-0.4,2.4-1.4,2.4H105V717.2z M97.2,722.3V722h-1.6l0,0.3H97.2   L97.2,722.3z M90.4,724.6h0.5l1.1-5.8h-0.2l1.2,5.8h0.4l1.4-6.8c0.2-0.7,0.2-1,0.5-1l0.2-0.1v-0.2h-1.7v0.2l0.2,0   c0.4,0.1,0.4,0.3,0.3,1.2l-0.9,4.6h0.1l-0.9-4.8c-0.1-0.5-0.2-0.8,0.2-0.9l0.3,0v-0.2h-2.3v0.2l0.2,0c0.2,0.1,0.3,0.2,0.4,0.6   l0.4,1.8l-0.1-1.1l-0.8,4.3H91l-1-4.7c-0.1-0.5-0.1-0.8,0.2-0.9l0.2,0v-0.2h-2.3v0.2l0.2,0.1c0.2,0.1,0.3,0.2,0.5,0.8L90.4,724.6   L90.4,724.6z M84.1,720.4l0.4,0c0.5,0,0.7,0.2,0.8,1.5h0.2v-3.3h-0.2c-0.1,1-0.3,1.5-0.8,1.5l-0.4,0v-3.5h0.8   c0.9,0,1.1,1.2,1.2,2.4h0.2v-2.7h-4.1v0.2l0.3,0.1c0.3,0.1,0.3,0.2,0.3,0.5v6.5c0,0.3-0.1,0.4-0.3,0.5l-0.3,0.1v0.2h4.2v-2.7h-0.2   c-0.1,1.2-0.3,2.4-1.4,2.4h-0.8V720.4L84.1,720.4z M76.6,724.5h2.4v-0.2l-0.3-0.1c-0.2,0-0.4-0.2-0.4-0.5v-3.2h1.8v3.2   c0,0.3-0.1,0.5-0.4,0.5l-0.3,0.1v0.2H82v-0.2l-0.3-0.1c-0.2-0.1-0.3-0.2-0.3-0.5v-6.5c0-0.3,0.1-0.4,0.3-0.5l0.3-0.1v-0.2h-2.4v0.2   l0.3,0.1c0.2,0.1,0.4,0.1,0.4,0.5v3h-1.8v-3c0-0.3,0.1-0.4,0.4-0.5l0.3-0.1v-0.2h-2.4v0.2l0.3,0.1c0.2,0.1,0.3,0.2,0.3,0.5v6.6   c0,0.3-0.1,0.4-0.3,0.5l-0.3,0.1V724.5L76.6,724.5z M74.8,716.7h0.3c0.7,0,1,1.2,1.1,2.4h0.2v-2.7h-4.3v2.7h0.2   c0.1-1.2,0.3-2.4,1.1-2.4h0.3v7.1c0,0.3-0.1,0.4-0.3,0.5l-0.3,0.1v0.2h2.5v-0.2l-0.4-0.1c-0.2-0.1-0.3-0.1-0.3-0.5V716.7   L74.8,716.7z"></path>
</g>
<g id="builtin.svg" class="st0">
	<g class="st1">
		<defs>
			<polygon id="SVGID_1_" points="57,8.3 57,12.2 58.3,12.2 58.3,9.7 77.1,9.7 77.1,28.9 58.4,28.9 58.4,26.3 57,26.3 57,30.3      78.5,30.3 78.5,8.3    "></polygon>
		</defs>
		<use xlink:href="#SVGID_1_" style="overflow:visible;"></use>
		<clipPath id="SVGID_00000096042525467757303260000004667196406303472002_">
			<use xlink:href="#SVGID_1_" style="overflow:visible;"></use>
		</clipPath>
	</g>
	<path class="st4" d="M66.5,16.7c-0.2-1-0.8-1.6-1.9-1.6h-3.3c-1.1,0-1.7,0.5-1.9,1.6c0,0.1,0,0.2,0,0.4v6.2h2v-5.5   c0-0.4,0.1-0.6,0.5-0.6h1.9c0.4,0,0.5,0.2,0.5,0.6v5.5h2v-6.2C66.5,17,66.5,16.9,66.5,16.7L66.5,16.7z M56.5,23.3h2v-8.1h-2V23.3z    M52.8,12.2h-2v11h2v-6h2v-2.1h-2V12.2z M47.8,23.3h2v-11h-2V23.3L47.8,23.3z M34,17.8c0-0.4-0.2-0.6-0.5-0.6h-1.9   c-0.4,0-0.6,0.2-0.6,0.6v3.4h2.5c0.4,0,0.5-0.2,0.5-0.6L34,17.8L34,17.8z M36,16.8c0,0.1,0,0.2,0,0.3v4c0,0.4-0.1,0.8-0.3,1.1   c-0.4,0.7-0.8,1-1.6,1h-5.3l0-11h2v2.9h3.3c0.1,0,0.3,0,0.4,0C35.4,15.4,35.9,16,36,16.8L36,16.8z M42,20.6c0,0.4-0.1,0.6-0.5,0.6   h-1.9c-0.4,0-0.5-0.2-0.5-0.6v-5.5h-2v6.2c0,0.1,0,0.3,0,0.4c0.2,1,0.8,1.6,1.9,1.6h3.3c1.1,0,1.7-0.5,1.9-1.6c0-0.1,0-0.3,0-0.4   v-6.2h-2L42,20.6L42,20.6z M44.9,23.3h2v-8.1h-2V23.3z"></path>
</g>
<g id="forbes.svg" class="st0">
	<path class="st1" d="M58.3,10.3c0,1.9,0,3.8,0,5.8c0.1,0,0.2-0.1,0.2-0.1c0.9-0.5,1.9-0.7,2.9-0.6c1.3,0.1,2.3,0.7,3.1,1.7   c0.8,1,1.1,2.1,1.2,3.3c0.1,1.4,0,2.8-0.6,4.1c-0.8,1.9-2.3,3.1-4.4,3.5c-1.1,0.2-2.2,0.2-3.3,0.1c-0.8-0.1-1.7-0.3-2.5-0.4   c-0.2,0-0.3-0.1-0.3-0.3c0-3.1,0.1-6.2,0.1-9.4c0-1.3,0-2.6-0.1-3.9c0-0.4-0.1-0.9-0.2-1.3c-0.1-0.6-0.6-0.9-1.2-1   c-0.3,0-0.4-0.1-0.3-0.4c0-0.1,0.1-0.2,0.2-0.2c1.6-0.3,3.2-0.6,4.8-0.9C58.2,10.3,58.3,10.3,58.3,10.3z M58.3,20.7   C58.3,20.7,58.3,20.7,58.3,20.7c0,2,0,4,0.1,6c0,0.4,0,0.4,0.4,0.5c0.7,0.1,1.4-0.1,1.9-0.6c0.4-0.4,0.7-0.9,0.9-1.4   c0.6-1.4,0.7-2.9,0.6-4.5c0-0.9-0.2-1.7-0.6-2.5c-0.2-0.5-0.5-0.9-1-1.3c-0.7-0.5-1.4-0.4-2.1-0.2c-0.1,0-0.2,0.1-0.2,0.3   C58.3,18.3,58.3,19.5,58.3,20.7z"></path>
	<path class="st1" d="M30.1,16.3c0,2,0,3.9,0,5.8c0,0-0.1,0-0.1,0c-0.5,0-0.5,0-0.7-0.5c-0.1-0.5-0.3-0.9-0.6-1.3   c-0.3-0.4-0.7-0.6-1.2-0.6c-0.6,0-1.2-0.1-1.8-0.1c-0.2,0-0.3,0.1-0.3,0.3c0,1.3,0.1,2.6,0.1,4c0,0.7,0.1,1.4,0.3,2   c0.2,0.6,0.7,1,1.4,1.1c0.2,0,0.5,0.1,0.7,0.1c0.3,0.1,0.2,0.3,0.2,0.5c0,0.2-0.1,0.2-0.2,0.2c-2.8,0-5.6,0-8.4,0   c-0.1,0-0.3,0-0.2-0.2c0-0.2-0.1-0.4,0.2-0.5c0.3-0.1,0.5-0.1,0.8-0.1c0.6-0.1,0.9-0.4,1.1-0.9c0.2-0.6,0.3-1.2,0.3-1.9   c0-2.6,0.1-5.2,0.1-7.8c0-1.1-0.1-2.2-0.2-3.3c0-0.2-0.1-0.5-0.2-0.7c-0.3-0.6-0.7-0.9-1.4-1c-0.2,0-0.3,0-0.5-0.1   c-0.1,0-0.1-0.1-0.1-0.1c0-0.1,0-0.3,0-0.4c0-0.1,0.1-0.1,0.2-0.2c0.1,0,0.1,0,0.2,0c4.4,0,8.8,0,13.1,0c0.1,0,0.2,0,0.3,0   c0,0.5,0,0.9,0.1,1.4c0,1.1,0,2.1,0.1,3.2c0,0.2-0.1,0.3-0.2,0.3c-0.5,0.1-0.5,0.2-0.7-0.4c-0.3-0.9-0.7-1.7-1.3-2.3   c-0.6-0.6-1.4-1-2.3-1c-0.9,0-1.9,0-2.8,0c-0.1,0-0.1,0-0.2,0c0,0.1,0,0.2,0,0.3c0,1.6-0.1,3.2-0.1,4.9c0,0.5,0,1.1,0,1.6   c0,0.2,0.1,0.3,0.3,0.3c0.5,0,1-0.1,1.5-0.1c0.9,0,1.5-0.4,1.8-1.2c0.1-0.3,0.2-0.6,0.3-1c0-0.1,0.1-0.2,0.2-0.2   C29.8,16.3,29.9,16.3,30.1,16.3z"></path>
	<path class="st1" d="M31.6,21.9c0-1.8,0.3-3.1,1.2-4.4c1-1.4,2.3-2.1,4-2.3c1.1-0.1,2.1-0.1,3.1,0.3c1.5,0.5,2.5,1.5,3.1,2.9   c0.9,2.3,0.9,4.6-0.3,6.8c-0.9,1.7-2.5,2.6-4.4,2.9c-1,0.1-2,0.1-3-0.3c-1.6-0.6-2.7-1.7-3.3-3.3C31.7,23.6,31.6,22.6,31.6,21.9z    M35.2,21.5c0,0.5,0,0.9,0.1,1.4c0,0.5,0.1,0.9,0.2,1.4c0.2,0.9,0.4,1.7,0.9,2.4c0.6,0.8,1.6,0.9,2.3,0.3c0.3-0.3,0.5-0.7,0.7-1.1   c0.4-1.1,0.5-2.3,0.5-3.4c0-1.1,0-2.2-0.2-3.3c-0.2-0.9-0.4-1.7-0.9-2.4c-0.8-1.1-2.1-1-2.8,0.1c-0.2,0.3-0.3,0.6-0.4,0.9   C35.3,19,35.3,20.2,35.2,21.5z"></path>
	<path class="st1" d="M77.4,25.4c0.1,0.1,0.1,0.1,0.2,0.2c0.1,0.1,0.1,0.2,0,0.4c-0.5,0.6-1.1,1.1-1.8,1.4c-2.3,1-4.6,0.9-6.6-0.7   c-1.2-0.9-1.8-2.2-2.1-3.7c-0.3-1.5-0.1-3,0.5-4.4c0.8-1.9,2.3-3.1,4.4-3.5c1.1-0.2,2.2-0.1,3.2,0.4c1.3,0.6,2.1,1.8,2.4,3.1   c0.2,0.7,0.2,1.4,0.3,2c0,0.2-0.1,0.3-0.3,0.3c-2.2,0-4.5,0-6.7,0c-0.4,0-0.4,0-0.4,0.4c0,1.2,0.3,2.4,1,3.4   c0.7,0.9,1.6,1.3,2.7,1.4C75.4,26.4,76.5,26.2,77.4,25.4z M74.3,20.1c0-0.1,0-0.1,0-0.2c0-0.6,0-1.1-0.1-1.7   c-0.1-0.6-0.2-1.2-0.6-1.7c-0.4-0.6-1-0.7-1.6-0.3c-0.4,0.3-0.6,0.7-0.8,1.1c-0.4,0.8-0.5,1.6-0.6,2.5c0,0.4,0,0.4,0.3,0.4   c0.9,0,1.8,0,2.7-0.1C73.8,20.1,74,20.1,74.3,20.1z"></path>
	<path class="st1" d="M86.9,19.1c-0.2-0.5-0.4-0.9-0.6-1.4c-0.2-0.5-0.6-0.9-1-1.3c-0.6-0.4-1.2-0.5-1.9-0.4   c-0.7,0.1-1.2,0.7-1.3,1.4c-0.1,0.8,0.2,1.3,0.8,1.8c0.7,0.5,1.5,0.8,2.2,1.1c0.7,0.3,1.4,0.6,1.9,1.1c0.6,0.6,0.9,1.3,0.9,2.2   c0,1-0.2,2-0.9,2.8c-0.7,0.8-1.6,1.2-2.6,1.4c-1.1,0.2-2.3,0.2-3.4,0c-0.7-0.1-1.4-0.3-2.2-0.5c-0.1,0-0.2-0.1-0.2-0.3   c0-1.1,0-2.1-0.1-3.2c0-0.3,0.2-0.3,0.4-0.3c0.2-0.1,0.2,0.1,0.2,0.2c0.3,0.8,0.6,1.5,1.2,2.2c0.8,0.8,1.7,1.1,2.8,0.9   c0.7-0.2,1.1-0.7,1.3-1.4c0.2-0.7,0-1.4-0.7-1.8c-0.5-0.3-1.1-0.6-1.7-0.9c-0.7-0.3-1.4-0.5-2-1c-1-0.7-1.4-1.8-1.3-3   c0.1-1.6,1.2-2.9,2.7-3.4c1-0.3,2.1-0.3,3.1-0.3c0.8,0.1,1.5,0.2,2.3,0.5c0.2,0.1,0.2,0.2,0.2,0.4c0,0.8,0,1.6,0,2.5   C87.4,19,87.3,19,86.9,19.1z"></path>
	<path class="st1" d="M51,27.1C51,27.2,51,27.2,51,27.1c0,0.7,0.1,0.6-0.5,0.6c-2.2,0-4.3,0-6.5,0c-0.1,0-0.3,0-0.3-0.1   c0-0.2,0-0.3,0-0.5c0,0,0.1-0.1,0.1-0.1c0.2,0,0.3-0.1,0.5-0.1c0.5-0.1,0.8-0.3,0.9-0.8c0.1-0.5,0.2-1.1,0.2-1.6c0-1.5,0.1-3,0-4.5   c0-0.7,0-1.4-0.1-2.1c-0.1-0.9-0.4-1.2-1.3-1.3c-0.2,0-0.3-0.1-0.3-0.3c0-0.2,0.1-0.2,0.2-0.3c0.9-0.2,1.8-0.4,2.8-0.6   c0.7-0.1,1.4-0.3,2.1-0.4c0,0,0.1,0,0.1,0c0,0.9,0,1.8,0,2.7c0.1-0.1,0.1-0.2,0.2-0.3c0.4-0.7,0.9-1.4,1.6-1.9   c0.9-0.6,1.9-0.8,2.9-0.4c0.2,0.1,0.3,0.2,0.2,0.4c-0.4,0.9-0.7,1.9-1.1,2.8c0,0.1-0.1,0.1-0.1,0.2c-0.2-0.1-0.4-0.2-0.7-0.3   c-0.8-0.3-1.7-0.4-2.6,0c-0.3,0.1-0.5,0.3-0.5,0.8c0,1.4,0,2.8,0,4.2c0,0.9,0.1,1.7,0.2,2.6c0.1,0.8,0.5,1.1,1.2,1.1   C50.5,27.1,50.8,27.1,51,27.1z"></path>
</g>
<g class="st0">
	<rect x="30.9" y="6.7" class="st1" width="45.6" height="24.6"></rect>
	<polygon class="st5" points="55.5,11.7 57.8,11.7 57.8,11.2 50.1,11.2 50.1,11.7 52.4,11.7 52.4,28.1 50.1,28.1 50.1,28.6    57.8,28.6 57.8,28.1 55.5,28.1  "></polygon>
	<g class="st1">
		<path class="st6" d="M48.6,16.2h-0.6c0,0-0.6-5-5.7-5c-4.7,0-5,4.1-5,7.5c0,5.4,0.6,9.7,5.3,9.7c5.1,0,5.9-4.9,5.9-4.9h0.6v5.1    h-0.4l-1.1-1.1c0,0-2.1,1.4-5,1.4c-5.1,0-8.9-4.1-8.9-8.9c0-5.1,3.5-9.3,8.5-9.3c3,0,4.6,1.5,4.6,1.5l1.3-1.2h0.4L48.6,16.2z"></path>
		<path class="st6" d="M74,20c0-3.9-3.1-9-8.1-9c-4.9,0-8.1,5-8.1,9c0,3.9,3.1,9,8.1,9C70.9,29,74,23.9,74,20"></path>
		<path d="M61.3,20c0-4.1-0.3-8.6,4.6-8.6c4.8,0,4.6,4.5,4.6,8.6c0,4.1,0.3,8.5-4.6,8.5C61.1,28.5,61.3,24.1,61.3,20"></path>
	</g>
</g>
<g id="logo-copy-2">
	<path id="Fill-1" class="st7" d="M18.9,18.6h-1.1c-1.4,0-2,0.6-2,2.3v4.6h-2.7v-9.6h2.2c0.3,0,0.5,0.2,0.5,0.5v1.1   c0.4-1,1.3-1.7,2.5-1.7c0.3,0,0.5,0,0.8,0.1V18.6z"></path>
	<path id="Fill-3" class="st7" d="M22.5,19.6h4.3c-0.1-1-1-1.8-2.1-1.8C23.6,17.9,22.7,18.6,22.5,19.6z M29.7,21.5h-7.1   c0.1,1.1,1,1.9,2.2,1.9c0.8,0,1.5-0.3,1.9-1l2.8,0.3c-0.9,2-2.6,3-4.8,3c-2.9,0-5-2.1-5-5c0-2.9,2.1-5,5-5c2.6,0,5,1.7,5,5.7V21.5z   "></path>
	<path id="Fill-5" class="st7" d="M62.5,18.6h-1.1c-1.4,0-2,0.6-2,2.3v4.6h-2.7v-9.6h2.2c0.3,0,0.5,0.2,0.5,0.5v1.1   c0.4-1,1.3-1.7,2.5-1.7c0.3,0,0.5,0,0.8,0.1V18.6z"></path>
	<path id="Fill-7" class="st7" d="M75.9,19.6h4.3c-0.1-1-1-1.8-2.1-1.8C76.9,17.9,76.1,18.6,75.9,19.6z M83,21.5h-7.1   c0.1,1.1,1,1.9,2.2,1.9c0.8,0,1.5-0.3,1.9-1l2.8,0.3c-0.9,2-2.6,3-4.8,3c-2.9,0-5-2.1-5-5c0-2.9,2.1-5,5-5c2.6,0,5,1.7,5,5.7V21.5z   "></path>
	<g id="Group-11" transform="translate(126.192836, 0.071214)">
		<path id="Fill-9" class="st7" d="M-39.4,20.6c0,1.5,1,2.6,2.4,2.6c1.4,0,2.4-1.2,2.4-2.6c0-1.5-1-2.6-2.4-2.6    C-38.4,18-39.4,19.1-39.4,20.6z M-34.5,24.2c-0.5,0.8-1.6,1.5-3,1.5c-2.6,0-4.6-2.1-4.6-5c0-2.9,2-5,4.6-5c1.5,0,2.6,0.7,3,1.5    c0-0.3,0-1.1,0-1.8v-3.1h2.2c0.3,0,0.5,0.2,0.5,0.5v12.8h-2.7V24.2z"></path>
	</g>
	<path id="Fill-12" class="st7" d="M66.7,25.2v0.3h-2.7V12.2h2.2c0.3,0,0.5,0.2,0.5,0.5v10.2"></path>
	<polygon id="Fill-14" class="st7" points="72.9,25.5 70.1,25.5 66.9,20.7 70.1,15.9 72.9,15.9 69.6,20.7  "></polygon>
	<path id="Fill-16" class="st7" d="M50.1,15.5l1,1.4l-0.9,1.3c1.2,0.2,2,1.1,2,2.4c0,1.3-1.1,2.4-2.4,2.4c-1.3,0-2.4-1.1-2.4-2.4   c0-1.1,0.8-2.1,1.8-2.3l0.9-1.3l-1-1.4c-2.5,0.3-4.5,2.5-4.5,5.1c0,2.8,2.3,5.1,5.1,5.1c2.8,0,5.1-2.3,5.1-5.1   C55,17.9,52.8,15.6,50.1,15.5"></path>
	<path id="Fill-18" class="st7" d="M41.2,15.9l-1.5,6.2l-1.3-4.7l0,0l-0.4-1.5h-0.4h-1.3h-1l0.5,1.5l-1.3,4.7l-1.4-5.9   c0-0.2-0.2-0.4-0.5-0.4h-2.4l2.5,9.6h3.2l1.1-4l1.1,4h3.2l2.5-9.6H41.2z"></path>
</g>
</svg>
